<svg width="418" height="80" viewBox="0 0 418 80" fill="none" xmlns="http://www.w3.org/2000/svg">
<path d="M22.5166 59.0582C18.3285 59.0582 14.5755 58.3787 11.2577 57.0198C7.93983 55.6609 5.27468 53.6497 3.26221 50.9861C1.30414 48.3226 0.270708 45.1156 0.161926 41.3649H15.0107C15.2282 43.4848 15.9625 45.1156 17.2135 46.2571C18.4645 47.3442 20.0962 47.8878 22.1087 47.8878C24.1755 47.8878 25.8073 47.4257 27.0039 46.5017C28.2005 45.5232 28.7988 44.1915 28.7988 42.5064C28.7988 41.0931 28.3092 39.9244 27.3302 39.0004C26.4056 38.0763 25.2361 37.3153 23.822 36.7173C22.4622 36.1194 20.5041 35.4399 17.9478 34.6789C14.2492 33.5374 11.2305 32.3959 8.89168 31.2544C6.55287 30.1129 4.54039 28.4279 2.85427 26.1992C1.16815 23.9706 0.325096 21.0624 0.325096 17.4749C0.325096 12.1478 2.25598 7.9895 6.11774 4.99985C9.9795 1.95584 15.0107 0.433838 21.2112 0.433838C27.5206 0.433838 32.6061 1.95584 36.4679 4.99985C40.3296 7.9895 42.3965 12.175 42.6684 17.5564H27.575C27.4662 15.7082 26.7863 14.2678 25.5353 13.235C24.2843 12.1478 22.6798 11.6043 20.7217 11.6043C19.0356 11.6043 17.6758 12.0663 16.6424 12.9904C15.6089 13.8601 15.0922 15.1375 15.0922 16.8226C15.0922 18.6707 15.9625 20.1112 17.703 21.144C19.4435 22.1768 22.1631 23.2911 25.8616 24.4869C29.5602 25.7372 32.5517 26.933 34.8362 28.0745C37.175 29.216 39.1874 30.8739 40.8735 33.0482C42.5597 35.2225 43.4027 38.0219 43.4027 41.4464C43.4027 44.7079 42.5597 47.6703 40.8735 50.3339C39.2418 52.9974 36.8486 55.1173 33.6939 56.6937C30.5393 58.27 26.8135 59.0582 22.5166 59.0582Z" fill="#212D3B"/>
<path d="M94.9029 35.0051C94.9029 36.3097 94.8213 37.6686 94.6581 39.0819H63.0842C63.3017 41.9085 64.1992 44.0828 65.7765 45.6048C67.4082 47.0724 69.3935 47.8062 71.7323 47.8062C75.2133 47.8062 77.6337 46.3386 78.9935 43.4033H93.8422C93.0808 46.3929 91.6938 49.0836 89.6814 51.4754C87.7233 53.8671 85.2485 55.7424 82.257 57.1013C79.2655 58.4603 75.9204 59.1397 72.2218 59.1397C67.7618 59.1397 63.7912 58.1885 60.3102 56.286C56.8292 54.3835 54.1097 51.6656 52.1516 48.1324C50.1935 44.5992 49.2145 40.468 49.2145 35.7389C49.2145 31.0098 50.1663 26.8787 52.07 23.3454C54.0281 19.8122 56.7476 17.0944 60.2286 15.1918C63.7097 13.2893 67.7074 12.3381 72.2218 12.3381C76.6275 12.3381 80.5437 13.2622 83.9703 15.1103C87.3969 16.9585 90.0621 19.5948 91.9657 23.0193C93.9238 26.4438 94.9029 30.4391 94.9029 35.0051ZM80.6252 31.336C80.6252 28.9442 79.8094 27.0417 78.1776 25.6285C76.5459 24.2152 74.5063 23.5085 72.0587 23.5085C69.7199 23.5085 67.7346 24.188 66.1029 25.5469C64.5255 26.9058 63.5465 28.8355 63.1658 31.336H80.6252Z" fill="#212D3B"/>
<path d="M116.214 20.5732C117.846 18.0728 119.886 16.1159 122.333 14.7026C124.781 13.235 127.5 12.5012 130.492 12.5012V27.2592H126.657C123.176 27.2592 120.565 28.0202 118.825 29.5422C117.084 31.0098 116.214 33.619 116.214 37.3696V58.4875H102.263V12.9904H116.214V20.5732Z" fill="#212D3B"/>
<path d="M157.638 45.4417L167.51 12.9904H182.359L166.205 58.4875H148.99L132.836 12.9904H147.766L157.638 45.4417Z" fill="#212D3B"/>
<path d="M231.146 35.0051C231.146 36.3097 231.064 37.6686 230.901 39.0819H199.327C199.545 41.9085 200.442 44.0828 202.019 45.6048C203.651 47.0724 205.636 47.8062 207.975 47.8062C211.456 47.8062 213.877 46.3386 215.236 43.4033H230.085C229.324 46.3929 227.937 49.0836 225.924 51.4754C223.966 53.8671 221.491 55.7424 218.5 57.1013C215.508 58.4603 212.163 59.1397 208.465 59.1397C204.005 59.1397 200.034 58.1885 196.553 56.286C193.072 54.3835 190.353 51.6656 188.395 48.1324C186.436 44.5992 185.457 40.468 185.457 35.7389C185.457 31.0098 186.409 26.8787 188.313 23.3454C190.271 19.8122 192.991 17.0944 196.472 15.1918C199.953 13.2893 203.95 12.3381 208.465 12.3381C212.87 12.3381 216.787 13.2622 220.213 15.1103C223.64 16.9585 226.305 19.5948 228.209 23.0193C230.167 26.4438 231.146 30.4391 231.146 35.0051ZM216.868 31.336C216.868 28.9442 216.052 27.0417 214.421 25.6285C212.789 24.2152 210.749 23.5085 208.302 23.5085C205.963 23.5085 203.978 24.188 202.346 25.5469C200.768 26.9058 199.789 28.8355 199.409 31.336H216.868Z" fill="#212D3B"/>
<path d="M247.154 7.69054V26.6884H267.877V32.8036H247.154V52.3723H270.324V58.4875H239.73V1.57534H270.324V7.69054H247.154Z" fill="#212D3B"/>
<path d="M278.785 35.9835C278.785 31.4175 279.709 27.4222 281.559 23.9977C283.408 20.5189 285.937 17.8282 289.146 15.9257C292.41 14.0232 296.027 13.0719 299.997 13.0719C303.913 13.0719 307.313 13.9145 310.195 15.5995C313.078 17.2846 315.227 19.4045 316.641 21.9593V13.8057H324.147V58.4875H316.641V50.1708C315.172 52.7799 312.969 54.9542 310.032 56.6937C307.15 58.3787 303.777 59.2213 299.915 59.2213C295.945 59.2213 292.355 58.2428 289.146 56.286C285.937 54.3291 283.408 51.5841 281.559 48.0508C279.709 44.5176 278.785 40.4952 278.785 35.9835ZM316.641 36.0651C316.641 32.6949 315.961 29.7596 314.601 27.2592C313.241 24.7587 311.392 22.8562 309.053 21.5517C306.769 20.1927 304.24 19.5133 301.466 19.5133C298.692 19.5133 296.163 20.1655 293.878 21.4701C291.594 22.7747 289.772 24.6772 288.412 27.1776C287.052 29.6781 286.372 32.6134 286.372 35.9835C286.372 39.408 287.052 42.3977 288.412 44.9525C289.772 47.4529 291.594 49.3826 293.878 50.7415C296.163 52.0461 298.692 52.6984 301.466 52.6984C304.24 52.6984 306.769 52.0461 309.053 50.7415C311.392 49.3826 313.241 47.4529 314.601 44.9525C315.961 42.3977 316.641 39.4352 316.641 36.0651Z" fill="#212D3B"/>
<path d="M352.521 59.2213C349.094 59.2213 346.021 58.6505 343.302 57.509C340.582 56.3132 338.434 54.6824 336.856 52.6169C335.279 50.4969 334.409 48.078 334.246 45.3602H341.915C342.132 47.5888 343.166 49.4098 345.015 50.8231C346.919 52.2364 349.393 52.943 352.439 52.943C355.268 52.943 357.498 52.3179 359.129 51.0677C360.761 49.8175 361.577 48.2411 361.577 46.3386C361.577 44.3817 360.707 42.9413 358.966 42.0172C357.226 41.0387 354.533 40.0875 350.889 39.1634C347.571 38.2937 344.852 37.424 342.731 36.5543C340.664 35.6302 338.869 34.2984 337.346 32.559C335.877 30.7652 335.143 28.4279 335.143 25.5469C335.143 23.2639 335.823 21.1712 337.183 19.2686C338.542 17.3661 340.473 15.8713 342.975 14.7842C345.477 13.6427 348.333 13.0719 351.542 13.0719C356.491 13.0719 360.489 14.3221 363.535 16.8226C366.581 19.323 368.213 22.7475 368.43 27.0961H361.006C360.843 24.7587 359.891 22.8834 358.15 21.4701C356.464 20.0568 354.18 19.3502 351.297 19.3502C348.632 19.3502 346.511 19.9209 344.933 21.0624C343.356 22.2039 342.567 23.6988 342.567 25.5469C342.567 27.0146 343.03 28.2376 343.954 29.216C344.933 30.1401 346.13 30.9011 347.544 31.499C349.013 32.0426 351.025 32.6677 353.582 33.3744C356.791 34.2441 359.401 35.1138 361.414 35.9835C363.426 36.7989 365.14 38.0491 366.554 39.7342C368.022 41.4193 368.784 43.6207 368.838 46.3386C368.838 48.7847 368.158 50.9861 366.799 52.943C365.439 54.8999 363.508 56.4491 361.006 57.5906C358.558 58.6777 355.73 59.2213 352.521 59.2213Z" fill="#212D3B"/>
<path d="M417.828 13.8057L390.904 79.5237H383.235L392.046 57.9982L374.016 13.8057H382.256L396.289 50.0077L410.158 13.8057H417.828Z" fill="#212D3B"/>
</svg>
