<svg width="84" height="84" viewBox="0 0 84 84" fill="none" xmlns="http://www.w3.org/2000/svg">
<path fill-rule="evenodd" clip-rule="evenodd" d="M64.071 0.585205C74.749 0.585205 83.162 8.94356 83.162 19.5522C83.162 30.1609 74.749 38.5193 64.071 38.5193C53.393 38.5193 44.98 30.1609 44.98 19.5522C44.98 8.94356 53.393 0.585205 64.071 0.585205Z" fill="#75B7F5"/>
<path fill-rule="evenodd" clip-rule="evenodd" d="M32.6812 0.585205H19.091C8.73656 0.585205 0 9.26503 0 19.5522C0 29.8394 8.73656 38.5193 19.091 38.5193H32.6812C37.2113 38.5193 40.7706 34.983 40.7706 30.4824V8.62208C41.0942 4.12143 37.2113 0.585205 32.6812 0.585205Z" fill="#0178E5"/>
<path fill-rule="evenodd" clip-rule="evenodd" d="M19.091 45.5919C8.41298 45.5919 0 53.9503 0 64.5589C0 75.1676 8.41298 83.526 19.091 83.526C29.769 83.526 38.182 75.1676 38.182 64.5589C38.182 53.9503 29.769 45.5919 19.091 45.5919Z" fill="#75B7F5"/>
<path fill-rule="evenodd" clip-rule="evenodd" d="M50.1541 45.5919H63.7443C74.0987 45.5919 82.8353 54.2717 82.8353 64.5589C82.8353 74.8462 74.0987 83.526 63.7443 83.526H50.1541C45.624 83.526 42.0647 79.9898 42.0647 75.4891V53.9503C42.0647 49.1281 45.9476 45.5919 50.1541 45.5919Z" fill="#0178E5"/>
</svg>
