<svg width="202" height="46" viewBox="0 0 202 46" fill="none" xmlns="http://www.w3.org/2000/svg">
<path d="M55.48 33.21C53.94 33.21 52.56 32.96 51.34 32.46C50.12 31.96 49.14 31.22 48.4 30.24C47.68 29.26 47.3 28.08 47.26 26.7H52.72C52.8 27.48 53.07 28.08 53.53 28.5C53.99 28.9 54.59 29.1 55.33 29.1C56.09 29.1 56.69 28.93 57.13 28.59C57.57 28.23 57.79 27.74 57.79 27.12C57.79 26.6 57.61 26.17 57.25 25.83C56.91 25.49 56.48 25.21 55.96 24.99C55.46 24.77 54.74 24.52 53.8 24.24C52.44 23.82 51.33 23.4 50.47 22.98C49.61 22.56 48.87 21.94 48.25 21.12C47.63 20.3 47.32 19.23 47.32 17.91C47.32 15.95 48.03 14.42 49.45 13.32C50.87 12.2 52.72 11.64 55 11.64C57.32 11.64 59.19 12.2 60.61 13.32C62.03 14.42 62.79 15.96 62.89 17.94H57.34C57.3 17.26 57.05 16.73 56.59 16.35C56.13 15.95 55.54 15.75 54.82 15.75C54.2 15.75 53.7 15.92 53.32 16.26C52.94 16.58 52.75 17.05 52.75 17.67C52.75 18.35 53.07 18.88 53.71 19.26C54.35 19.64 55.35 20.05 56.71 20.49C58.07 20.95 59.17 21.39 60.01 21.81C60.87 22.23 61.61 22.84 62.23 23.64C62.85 24.44 63.16 25.47 63.16 26.73C63.16 27.93 62.85 29.02 62.23 30C61.63 30.98 60.75 31.76 59.59 32.34C58.43 32.92 57.06 33.21 55.48 33.21ZM82.097 24.36C82.097 24.84 82.067 25.34 82.007 25.86H70.397C70.477 26.9 70.807 27.7 71.387 28.26C71.987 28.8 72.717 29.07 73.577 29.07C74.857 29.07 75.747 28.53 76.247 27.45H81.707C81.427 28.55 80.917 29.54 80.177 30.42C79.457 31.3 78.547 31.99 77.447 32.49C76.347 32.99 75.117 33.24 73.757 33.24C72.117 33.24 70.657 32.89 69.377 32.19C68.097 31.49 67.097 30.49 66.377 29.19C65.657 27.89 65.297 26.37 65.297 24.63C65.297 22.89 65.647 21.37 66.347 20.07C67.067 18.77 68.067 17.77 69.347 17.07C70.627 16.37 72.097 16.02 73.757 16.02C75.377 16.02 76.817 16.36 78.077 17.04C79.337 17.72 80.317 18.69 81.017 19.95C81.737 21.21 82.097 22.68 82.097 24.36ZM76.847 23.01C76.847 22.13 76.547 21.43 75.947 20.91C75.347 20.39 74.597 20.13 73.697 20.13C72.837 20.13 72.107 20.38 71.507 20.88C70.927 21.38 70.567 22.09 70.427 23.01H76.847ZM89.9334 19.05C90.5334 18.13 91.2834 17.41 92.1834 16.89C93.0834 16.35 94.0834 16.08 95.1834 16.08V21.51H93.7734C92.4934 21.51 91.5334 21.79 90.8934 22.35C90.2534 22.89 89.9334 23.85 89.9334 25.23V33H84.8034V16.26H89.9334V19.05ZM105.165 28.2L108.795 16.26H114.255L108.315 33H101.985L96.0454 16.26H101.535L105.165 28.2ZM132.195 24.36C132.195 24.84 132.165 25.34 132.105 25.86H120.495C120.575 26.9 120.905 27.7 121.485 28.26C122.085 28.8 122.815 29.07 123.675 29.07C124.955 29.07 125.845 28.53 126.345 27.45H131.805C131.525 28.55 131.015 29.54 130.275 30.42C129.555 31.3 128.645 31.99 127.545 32.49C126.445 32.99 125.215 33.24 123.855 33.24C122.215 33.24 120.755 32.89 119.475 32.19C118.195 31.49 117.195 30.49 116.475 29.19C115.755 27.89 115.395 26.37 115.395 24.63C115.395 22.89 115.745 21.37 116.445 20.07C117.165 18.77 118.165 17.77 119.445 17.07C120.725 16.37 122.195 16.02 123.855 16.02C125.475 16.02 126.915 16.36 128.175 17.04C129.435 17.72 130.415 18.69 131.115 19.95C131.835 21.21 132.195 22.68 132.195 24.36ZM126.945 23.01C126.945 22.13 126.645 21.43 126.045 20.91C125.445 20.39 124.695 20.13 123.795 20.13C122.935 20.13 122.205 20.38 121.605 20.88C121.025 21.38 120.665 22.09 120.525 23.01H126.945ZM138.081 14.31V21.3H145.701V23.55H138.081V30.75H146.601V33H135.351V12.06H146.601V14.31H138.081ZM149.712 24.72C149.712 23.04 150.052 21.57 150.732 20.31C151.412 19.03 152.342 18.04 153.522 17.34C154.722 16.64 156.052 16.29 157.512 16.29C158.952 16.29 160.202 16.6 161.262 17.22C162.322 17.84 163.112 18.62 163.632 19.56V16.56H166.392V33H163.632V29.94C163.092 30.9 162.282 31.7 161.202 32.34C160.142 32.96 158.902 33.27 157.482 33.27C156.022 33.27 154.702 32.91 153.522 32.19C152.342 31.47 151.412 30.46 150.732 29.16C150.052 27.86 149.712 26.38 149.712 24.72ZM163.632 24.75C163.632 23.51 163.382 22.43 162.882 21.51C162.382 20.59 161.702 19.89 160.842 19.41C160.002 18.91 159.072 18.66 158.052 18.66C157.032 18.66 156.102 18.9 155.262 19.38C154.422 19.86 153.752 20.56 153.252 21.48C152.752 22.4 152.502 23.48 152.502 24.72C152.502 25.98 152.752 27.08 153.252 28.02C153.752 28.94 154.422 29.65 155.262 30.15C156.102 30.63 157.032 30.87 158.052 30.87C159.072 30.87 160.002 30.63 160.842 30.15C161.702 29.65 162.382 28.94 162.882 28.02C163.382 27.08 163.632 25.99 163.632 24.75ZM176.825 33.27C175.565 33.27 174.435 33.06 173.435 32.64C172.435 32.2 171.645 31.6 171.065 30.84C170.485 30.06 170.165 29.17 170.105 28.17H172.925C173.005 28.99 173.385 29.66 174.065 30.18C174.765 30.7 175.675 30.96 176.795 30.96C177.835 30.96 178.655 30.73 179.255 30.27C179.855 29.81 180.155 29.23 180.155 28.53C180.155 27.81 179.835 27.28 179.195 26.94C178.555 26.58 177.565 26.23 176.225 25.89C175.005 25.57 174.005 25.25 173.225 24.93C172.465 24.59 171.805 24.1 171.245 23.46C170.705 22.8 170.435 21.94 170.435 20.88C170.435 20.04 170.685 19.27 171.185 18.57C171.685 17.87 172.395 17.32 173.315 16.92C174.235 16.5 175.285 16.29 176.465 16.29C178.285 16.29 179.755 16.75 180.875 17.67C181.995 18.59 182.595 19.85 182.675 21.45H179.945C179.885 20.59 179.535 19.9 178.895 19.38C178.275 18.86 177.435 18.6 176.375 18.6C175.395 18.6 174.615 18.81 174.035 19.23C173.455 19.65 173.165 20.2 173.165 20.88C173.165 21.42 173.335 21.87 173.675 22.23C174.035 22.57 174.475 22.85 174.995 23.07C175.535 23.27 176.275 23.5 177.215 23.76C178.395 24.08 179.355 24.4 180.095 24.72C180.835 25.02 181.465 25.48 181.985 26.1C182.525 26.72 182.805 27.53 182.825 28.53C182.825 29.43 182.575 30.24 182.075 30.96C181.575 31.68 180.865 32.25 179.945 32.67C179.045 33.07 178.005 33.27 176.825 33.27ZM200.839 16.56L190.939 40.74H188.119L191.359 32.82L184.729 16.56H187.759L192.919 29.88L198.019 16.56H200.839Z" fill="#DEDEDE"/>
<g clip-path="url(#clip0)">
<path d="M20.5108 31.3383C20.679 31.4496 20.8512 31.5569 21.0274 31.6603C22.469 32.4991 24.1188 33 25.9248 33C31.487 33 35.996 28.5238 35.996 23.002C36 17.4762 31.491 13 25.9248 13C22.4209 13 19.6498 14.3874 17.059 15.9338C15.2489 14.1568 12.7622 13.0557 10.0111 13.0557C4.48498 13.0596 0 17.508 0 22.998C0 28.488 4.48498 32.9404 10.0151 32.9404C14.1077 32.9404 17.3473 29.6528 20.5108 31.3383ZM11.2405 19.2095C9.90701 19.7621 8.50945 20.1199 6.97976 20.1199C2.51079 20.1199 6.62736 13.4095 11.2405 19.2095ZM19.8661 19.8853C23.6503 17.5955 28.816 15.4329 32.3119 17.4246C37.1092 20.1556 36.2283 27.0648 29.2125 27.1006C24.6073 27.1205 21.7281 22.8628 19.8661 19.8853ZM13.8474 29.5693C12.0294 28.6947 12.4979 26.2499 14.4601 24.0276C15.3491 25.3713 16.0819 26.4446 17.3152 28.1938C17.5235 28.4919 17.7477 28.7821 17.984 29.0644C16.3141 29.7919 14.8125 30.0304 13.8474 29.5693Z" fill="url(#paint0_linear)"/>
<path d="M20.5108 31.3383C20.679 31.4496 20.8512 31.5569 21.0274 31.6603C22.469 32.4991 24.1188 33 25.9248 33C31.487 33 35.996 28.5238 35.996 23.002C36 17.4762 31.491 13 25.9248 13C22.4209 13 19.6498 14.3874 17.059 15.9338C15.2489 14.1568 12.7622 13.0557 10.0111 13.0557C4.48498 13.0596 0 17.508 0 22.998C0 28.488 4.48498 32.9404 10.0151 32.9404C14.1077 32.9404 17.3473 29.6528 20.5108 31.3383ZM11.2405 19.2095C9.90701 19.7621 8.50945 20.1199 6.97976 20.1199C2.51079 20.1199 6.62736 13.4095 11.2405 19.2095ZM19.8661 19.8853C23.6503 17.5955 28.816 15.4329 32.3119 17.4246C37.1092 20.1556 36.2283 27.0648 29.2125 27.1006C24.6073 27.1205 21.7281 22.8628 19.8661 19.8853ZM13.8474 29.5693C12.0294 28.6947 12.4979 26.2499 14.4601 24.0276C15.3491 25.3713 16.0819 26.4446 17.3152 28.1938C17.5235 28.4919 17.7477 28.7821 17.984 29.0644C16.3141 29.7919 14.8125 30.0304 13.8474 29.5693Z" fill="url(#paint1_linear)"/>
<path opacity="0.5" d="M17.4193 15.9338C19.9541 14.4152 22.6692 13.0557 26.0729 13C26.0249 13 25.9768 13 25.9248 13C22.521 13 19.806 14.3079 17.2792 15.8066C17.3272 15.8464 17.3713 15.8901 17.4193 15.9338Z" fill="url(#paint2_linear)"/>
<path d="M29.3687 27.0965C29.4328 27.0965 29.5008 27.1005 29.5689 27.0965C36.5847 27.0647 37.4657 20.1556 32.6684 17.4245C31.6512 16.8441 30.4939 16.6175 29.2726 16.6453C30.3658 16.6692 31.3949 16.9037 32.312 17.4245C37.0732 20.1317 36.2403 26.9614 29.3687 27.0965Z" fill="url(#paint3_linear)"/>
<path d="M7.3362 20.1199C8.8659 20.1199 10.2594 19.7621 11.5969 19.2096C10.1273 17.361 8.70973 16.7846 7.60049 16.8562C8.64966 16.9198 9.92308 17.5558 11.2405 19.2096C9.96712 19.7383 8.64165 20.0881 7.19604 20.1199C7.24009 20.1199 7.28815 20.1199 7.3362 20.1199Z" fill="url(#paint4_linear)"/>
<path d="M18.3364 29.0604C18.1001 28.7821 17.8799 28.4879 17.6676 28.1898C16.4383 26.4406 15.5613 25.1327 14.6723 23.7891C14.6042 23.8686 14.5242 23.9441 14.4601 24.0236C15.281 25.2599 16.154 26.544 17.3153 28.1898C17.5235 28.4879 17.7477 28.7781 17.984 29.0604C16.9709 29.5056 16.0218 29.764 15.2169 29.7998C16.0899 29.8395 17.1751 29.5732 18.3364 29.0604Z" fill="url(#paint5_linear)"/>
<path opacity="0.5" d="M26.089 32.996C24.3591 32.9602 22.7733 32.4673 21.3838 31.6603C21.2076 31.5569 21.0354 31.4496 20.8672 31.3383C20.1624 30.9646 19.4576 30.8334 18.7368 30.8613C19.3335 30.8851 19.9221 31.0243 20.5108 31.3383C20.679 31.4496 20.8512 31.5569 21.0274 31.6603C22.469 32.4991 24.1188 33 25.9248 33C25.9809 33 26.0369 33 26.089 32.996Z" fill="url(#paint6_linear)"/>
<path opacity="0.4" d="M0.356396 22.998C0.356396 17.5677 4.74527 13.1511 10.1953 13.0596C10.1353 13.0596 10.0752 13.0557 10.0151 13.0557C4.48498 13.0596 0 17.5081 0 22.998C0 28.488 4.48498 32.9404 10.0151 32.9404C10.0752 32.9404 10.1353 32.9404 10.1953 32.9364C4.74527 32.845 0.356396 28.4323 0.356396 22.998Z" fill="url(#paint7_linear)"/>
<path d="M32.3119 17.4246C29.8812 16.0412 26.6496 16.6653 23.6343 17.9414C29.0002 16.1843 27.7028 21.873 23.8265 24.9023C25.2961 26.1903 27.0661 27.1126 29.2165 27.1006C36.2283 27.0648 37.1093 20.1557 32.3119 17.4246Z" fill="url(#paint8_linear)"/>
<path opacity="0.5" d="M3.24361 18.5416C4.11658 17.5597 5.46608 16.856 7.23204 16.856H7.22803C8.33727 16.7765 9.76285 17.353 11.2405 19.2094C13.2467 18.3746 15.0808 17.1184 17.063 15.9377C15.253 14.1607 12.7662 13.0596 10.0151 13.0596C6.60334 13.0596 3.59199 14.7491 1.78198 17.3331L3.24361 18.5416Z" fill="url(#paint9_linear)"/>
<path opacity="0.4" d="M29.2125 27.0965C24.6114 27.1164 21.7322 22.8628 19.8661 19.8853C18.004 21.0103 16.4743 22.1671 15.6414 22.8747C15.2049 23.2444 14.8085 23.63 14.4641 24.0276C15.3531 25.3712 16.0859 26.4446 17.3193 28.1937C19.2654 30.9606 22.2808 33.0039 25.9288 33.0039L29.2125 27.0965Z" fill="url(#paint10_linear)"/>
<path d="M12.4098 32.6024C15.4212 31.8074 17.992 29.9946 20.5108 31.3383C19.8461 30.9527 18.9651 30.1536 17.984 29.0604C16.3142 29.7918 14.8125 30.0304 13.8514 29.5692C12.0334 28.6947 12.5019 26.2498 14.4641 24.0276C10.8641 27.3828 6.79959 33.9063 12.4098 32.6024Z" fill="url(#paint11_linear)"/>
<path d="M13.9274 24.5405C14.0595 24.3656 14.2037 24.1946 14.3559 24.0237C11.0642 27.0966 7.38013 32.8251 11.0842 32.7734C7.74854 32.7138 10.824 27.6651 13.9274 24.5405Z" fill="url(#paint12_linear)"/>
<path d="M7.23205 16.8561C1.60179 17.6074 0.0520726 24.6518 5.81047 24.6518C11.5689 24.6518 16.5024 13 25.9248 13C17.984 13 13.8074 20.1199 6.97977 20.1199C3.94039 20.1199 4.87343 17.0151 7.23205 16.8561Z" fill="url(#paint13_linear)"/>
<path d="M5.87852 24.5923C2.90322 24.5923 1.87808 22.7119 2.35861 20.7918C1.73392 22.7914 2.71901 24.8268 5.81445 24.8268C11.5769 24.8268 16.5063 13.175 25.9288 13.175C23.9066 13.175 22.1326 13.6362 20.4908 14.3239C14.412 17.4128 10.3995 24.5923 5.87852 24.5923Z" fill="url(#paint14_linear)"/>
<path d="M30.662 30.0901C30.7501 31.1793 29.0402 32.205 26.8418 32.3799C24.6433 32.5548 22.7933 31.8114 22.7052 30.7222C22.6171 29.6329 24.327 28.6073 26.5254 28.4323C28.7238 28.2574 30.5739 28.9968 30.662 30.0901Z" fill="url(#paint15_linear)"/>
<path d="M27.002 13.5248C29.2365 13.8269 31.1786 14.5147 32.416 15.3495C31.9275 14.9162 28.1833 11.8353 22.9735 13.4811C24.1548 13.326 25.5404 13.33 27.002 13.5248Z" fill="url(#paint16_linear)"/>
<path d="M26.6817 14.8765C24.9037 15.2104 23.2258 15.8584 21.628 16.6336C20.0343 17.4207 18.5326 18.3788 17.123 19.4521C16.4343 20.0126 15.7295 20.5533 15.0968 21.1774C14.7764 21.4835 14.424 21.7618 14.1277 22.0917C13.8234 22.4137 13.515 22.7357 13.2027 23.0538C12.8783 23.3638 12.602 23.7097 12.3097 24.0476L11.4287 25.0613C10.8641 25.757 10.3355 26.4765 9.75085 27.1722C10.1873 26.3851 10.6358 25.602 11.1204 24.8387L11.9133 23.7336C12.1775 23.3638 12.4418 22.9981 12.7462 22.6602C13.0385 22.3143 13.3348 21.9685 13.6352 21.6266C13.9275 21.2768 14.2719 20.9786 14.5922 20.6527C15.2289 19.9967 15.9497 19.4322 16.6465 18.8478C18.1081 17.7506 19.6819 16.7886 21.3758 16.0929C23.0656 15.3972 24.8636 14.8924 26.6817 14.8765Z" fill="url(#paint17_linear)"/>
</g>
<defs>
<linearGradient id="paint0_linear" x1="0.00852364" y1="23.0054" x2="35.9968" y2="23.0054" gradientUnits="userSpaceOnUse">
<stop stop-color="#E9E9E9" stop-opacity="0.3"/>
<stop offset="0.4972" stop-color="#DCDCDC"/>
<stop offset="1" stop-color="#E2E2E2" stop-opacity="0.3"/>
</linearGradient>
<linearGradient id="paint1_linear" x1="0.00852364" y1="23.0054" x2="35.9968" y2="23.0054" gradientUnits="userSpaceOnUse">
<stop stop-color="#E9E9E9" stop-opacity="0.3"/>
<stop offset="0.4972" stop-color="#DCDCDC"/>
<stop offset="1" stop-color="#E2E2E2" stop-opacity="0.3"/>
</linearGradient>
<linearGradient id="paint2_linear" x1="17.2813" y1="14.4677" x2="26.0731" y2="14.4677" gradientUnits="userSpaceOnUse">
<stop stop-color="#E9E9E9" stop-opacity="0.3"/>
<stop offset="0.4972" stop-color="#DCDCDC"/>
<stop offset="1" stop-color="#E2E2E2" stop-opacity="0.3"/>
</linearGradient>
<linearGradient id="paint3_linear" x1="29.2741" y1="21.8735" x2="35.6747" y2="21.8735" gradientUnits="userSpaceOnUse">
<stop stop-color="#E9E9E9" stop-opacity="0.3"/>
<stop offset="0.4972" stop-color="#DCDCDC"/>
<stop offset="1" stop-color="#E2E2E2" stop-opacity="0.3"/>
</linearGradient>
<linearGradient id="paint4_linear" x1="7.19709" y1="18.486" x2="11.597" y2="18.486" gradientUnits="userSpaceOnUse">
<stop stop-color="#E9E9E9" stop-opacity="0.3"/>
<stop offset="0.4972" stop-color="#DCDCDC"/>
<stop offset="1" stop-color="#E2E2E2" stop-opacity="0.3"/>
</linearGradient>
<linearGradient id="paint5_linear" x1="14.461" y1="26.798" x2="18.3365" y2="26.798" gradientUnits="userSpaceOnUse">
<stop stop-color="#E9E9E9" stop-opacity="0.3"/>
<stop offset="0.4972" stop-color="#DCDCDC"/>
<stop offset="1" stop-color="#E2E2E2" stop-opacity="0.3"/>
</linearGradient>
<linearGradient id="paint6_linear" x1="18.7386" y1="31.9294" x2="26.0892" y2="31.9294" gradientUnits="userSpaceOnUse">
<stop stop-color="#E9E9E9" stop-opacity="0.3"/>
<stop offset="0.4972" stop-color="#DCDCDC"/>
<stop offset="1" stop-color="#E2E2E2" stop-opacity="0.3"/>
</linearGradient>
<linearGradient id="paint7_linear" x1="0.00241419" y1="23.0034" x2="10.1956" y2="23.0034" gradientUnits="userSpaceOnUse">
<stop stop-color="#E9E9E9" stop-opacity="0.3"/>
<stop offset="0.4972" stop-color="#DCDCDC"/>
<stop offset="1" stop-color="#E2E2E2" stop-opacity="0.3"/>
</linearGradient>
<linearGradient id="paint8_linear" x1="23.637" y1="21.8739" x2="35.3187" y2="21.8739" gradientUnits="userSpaceOnUse">
<stop stop-color="#E9E9E9" stop-opacity="0.3"/>
<stop offset="0.4972" stop-color="#DCDCDC"/>
<stop offset="1" stop-color="#E2E2E2" stop-opacity="0.3"/>
</linearGradient>
<linearGradient id="paint9_linear" x1="1.7856" y1="16.1362" x2="17.0633" y2="16.1362" gradientUnits="userSpaceOnUse">
<stop stop-color="#E9E9E9" stop-opacity="0.3"/>
<stop offset="0.4972" stop-color="#DCDCDC"/>
<stop offset="1" stop-color="#E2E2E2" stop-opacity="0.3"/>
</linearGradient>
<linearGradient id="paint10_linear" x1="14.4676" y1="26.4481" x2="29.2128" y2="26.4481" gradientUnits="userSpaceOnUse">
<stop stop-color="#E9E9E9" stop-opacity="0.3"/>
<stop offset="0.4972" stop-color="#DCDCDC"/>
<stop offset="1" stop-color="#E2E2E2" stop-opacity="0.3"/>
</linearGradient>
<linearGradient id="paint11_linear" x1="9.64161" y1="28.4023" x2="20.5111" y2="28.4023" gradientUnits="userSpaceOnUse">
<stop stop-color="#E9E9E9" stop-opacity="0.3"/>
<stop offset="0.4972" stop-color="#DCDCDC"/>
<stop offset="1" stop-color="#E2E2E2" stop-opacity="0.3"/>
</linearGradient>
<linearGradient id="paint12_linear" x1="9.5363" y1="28.4011" x2="14.356" y2="28.4011" gradientUnits="userSpaceOnUse">
<stop stop-color="#E9E9E9" stop-opacity="0.3"/>
<stop offset="0.4972" stop-color="#DCDCDC"/>
<stop offset="1" stop-color="#E2E2E2" stop-opacity="0.3"/>
</linearGradient>
<linearGradient id="paint13_linear" x1="2.18433" y1="18.829" x2="25.9254" y2="18.829" gradientUnits="userSpaceOnUse">
<stop stop-color="#E9E9E9" stop-opacity="0.3"/>
<stop offset="0.4972" stop-color="#DCDCDC"/>
<stop offset="1" stop-color="#E2E2E2" stop-opacity="0.3"/>
</linearGradient>
<linearGradient id="paint14_linear" x1="2.18592" y1="19.0041" x2="25.9293" y2="19.0041" gradientUnits="userSpaceOnUse">
<stop stop-color="#E9E9E9" stop-opacity="0.3"/>
<stop offset="0.4972" stop-color="#DCDCDC"/>
<stop offset="1" stop-color="#E2E2E2" stop-opacity="0.3"/>
</linearGradient>
<linearGradient id="paint15_linear" x1="22.7038" y1="30.4071" x2="30.6654" y2="30.4071" gradientUnits="userSpaceOnUse">
<stop stop-color="#E9E9E9" stop-opacity="0.3"/>
<stop offset="0.4972" stop-color="#DCDCDC"/>
<stop offset="1" stop-color="#E2E2E2" stop-opacity="0.3"/>
</linearGradient>
<linearGradient id="paint16_linear" x1="22.9757" y1="14.176" x2="32.4162" y2="14.176" gradientUnits="userSpaceOnUse">
<stop stop-color="#E9E9E9" stop-opacity="0.3"/>
<stop offset="0.4972" stop-color="#DCDCDC"/>
<stop offset="1" stop-color="#E2E2E2" stop-opacity="0.3"/>
</linearGradient>
<linearGradient id="paint17_linear" x1="9.75486" y1="21.0277" x2="26.682" y2="21.0277" gradientUnits="userSpaceOnUse">
<stop stop-color="#E9E9E9" stop-opacity="0.3"/>
<stop offset="0.4972" stop-color="#DCDCDC"/>
<stop offset="1" stop-color="#E2E2E2" stop-opacity="0.3"/>
</linearGradient>
<clipPath id="clip0">
<rect width="36" height="20" fill="white" transform="translate(0 13)"/>
</clipPath>
</defs>
</svg>
