<svg width="20" height="17" viewBox="0 0 20 17" fill="none" xmlns="http://www.w3.org/2000/svg">
<path fill-rule="evenodd" clip-rule="evenodd" d="M11.6788 3.43514C15.3563 4.21061 18.1252 7.48092 18.1252 11.3858C18.1252 12.1 17.5462 12.679 16.832 12.679H3.16849C2.45425 12.679 1.87524 12.1 1.87524 11.3858C1.87524 7.48091 4.64417 4.2107 8.32171 3.43516C8.90946 3.31121 9.37524 2.82063 9.37524 2.21995V1.6958C9.37524 1.35062 9.65507 1.0708 10.0002 1.0708C10.3454 1.0708 10.6252 1.35062 10.6252 1.6958V2.21993C10.6252 2.82061 11.091 3.3112 11.6788 3.43514ZM16.832 11.429C16.8559 11.429 16.8752 11.4096 16.8752 11.3858C16.8752 7.59486 13.7911 4.51076 10.0002 4.51076C6.20935 4.51076 3.12524 7.5949 3.12524 11.3858C3.12524 11.4096 3.14461 11.429 3.16849 11.429H16.832ZM1.25024 14.679C0.905066 14.679 0.625244 14.9588 0.625244 15.304C0.625244 15.6491 0.905067 15.929 1.25024 15.929H18.7502C19.0954 15.929 19.3752 15.6491 19.3752 15.304C19.3752 14.9588 19.0954 14.679 18.7502 14.679H1.25024Z" fill="#0178E5"/>
<path d="M11.6788 3.43514L11.7304 3.19051L11.7304 3.19051L11.6788 3.43514ZM8.32171 3.43516L8.27013 3.19054L8.27013 3.19054L8.32171 3.43516ZM18.3752 11.3858C18.3752 7.36012 15.521 3.98984 11.7304 3.19051L11.6272 3.67976C15.1917 4.43139 17.8752 7.60171 17.8752 11.3858H18.3752ZM16.832 12.929C17.6843 12.929 18.3752 12.2381 18.3752 11.3858H17.8752C17.8752 11.9619 17.4082 12.429 16.832 12.429V12.929ZM3.16849 12.929H16.832V12.429H3.16849V12.929ZM1.62524 11.3858C1.62524 12.2381 2.31618 12.929 3.16849 12.929V12.429C2.59232 12.429 2.12524 11.9619 2.12524 11.3858H1.62524ZM8.27013 3.19054C4.47951 3.98992 1.62524 7.36011 1.62524 11.3858H2.12524C2.12524 7.60171 4.80883 4.43147 8.3733 3.67978L8.27013 3.19054ZM9.12524 2.21995C9.12524 2.68319 8.76216 3.08677 8.27013 3.19054L8.3733 3.67978C9.05676 3.53564 9.62524 2.95806 9.62524 2.21995H9.12524ZM9.12524 1.6958V2.21995H9.62524V1.6958H9.12524ZM10.0002 0.820801C9.517 0.820801 9.12524 1.21255 9.12524 1.6958H9.62524C9.62524 1.48869 9.79314 1.3208 10.0002 1.3208V0.820801ZM10.8752 1.6958C10.8752 1.21255 10.4835 0.820801 10.0002 0.820801V1.3208C10.2074 1.3208 10.3752 1.48869 10.3752 1.6958H10.8752ZM10.8752 2.21993V1.6958H10.3752V2.21993H10.8752ZM11.7304 3.19051C11.2383 3.08676 10.8752 2.68318 10.8752 2.21993H10.3752C10.3752 2.95805 10.9437 3.53563 11.6272 3.67976L11.7304 3.19051ZM16.6252 11.3858C16.6252 11.2716 16.7178 11.179 16.832 11.179V11.679C16.994 11.679 17.1252 11.5477 17.1252 11.3858H16.6252ZM10.0002 4.76076C13.6531 4.76076 16.6252 7.73293 16.6252 11.3858H17.1252C17.1252 7.45679 13.9292 4.26076 10.0002 4.26076V4.76076ZM3.37524 11.3858C3.37524 7.73297 6.34742 4.76076 10.0002 4.76076V4.26076C6.07127 4.26076 2.87524 7.45683 2.87524 11.3858H3.37524ZM3.16849 11.179C3.28267 11.179 3.37524 11.2716 3.37524 11.3858H2.87524C2.87524 11.5477 3.00654 11.679 3.16849 11.679V11.179ZM16.832 11.179H3.16849V11.679H16.832V11.179ZM0.875244 15.304C0.875244 15.0968 1.04314 14.929 1.25024 14.929V14.429C0.766995 14.429 0.375244 14.8207 0.375244 15.304H0.875244ZM1.25024 15.679C1.04314 15.679 0.875244 15.5111 0.875244 15.304H0.375244C0.375244 15.7872 0.766996 16.179 1.25024 16.179V15.679ZM18.7502 15.679H1.25024V16.179H18.7502V15.679ZM19.1252 15.304C19.1252 15.5111 18.9574 15.679 18.7502 15.679V16.179C19.2335 16.179 19.6252 15.7872 19.6252 15.304H19.1252ZM18.7502 14.929C18.9573 14.929 19.1252 15.0968 19.1252 15.304H19.6252C19.6252 14.8207 19.2335 14.429 18.7502 14.429V14.929ZM1.25024 14.929H18.7502V14.429H1.25024V14.929Z" fill="#0178E5"/>
</svg>
