<svg width="20" height="17" viewBox="0 0 20 17" fill="none" xmlns="http://www.w3.org/2000/svg">
<path fill-rule="evenodd" clip-rule="evenodd" d="M4.00024 0.299805C1.79111 0.299805 0.000244141 2.09067 0.000244141 4.2998V5.2998V10.2998C0.000244141 12.5089 1.7911 14.2998 4.00024 14.2998H12.0002C12.5525 14.2998 13.0002 13.8521 13.0002 13.2998C13.0002 12.7475 12.5525 12.2998 12.0002 12.2998H4.00024C2.89567 12.2998 2.00024 11.4044 2.00024 10.2998V6.2998H16.0002V8.2998C16.0002 8.85209 16.448 9.2998 17.0002 9.2998C17.5525 9.2998 18.0002 8.85209 18.0002 8.2998V5.2998V4.2998C18.0002 2.09067 16.2094 0.299805 14.0002 0.299805H4.00024ZM16.0002 4.2998C16.0002 3.19524 15.1048 2.2998 14.0002 2.2998H4.00024C2.89567 2.2998 2.00024 3.19524 2.00024 4.2998H16.0002ZM17.0002 10.2998C17.5525 10.2998 18.0002 10.7475 18.0002 11.2998V12.2998H19.0002C19.5525 12.2998 20.0002 12.7475 20.0002 13.2998C20.0002 13.8521 19.5525 14.2998 19.0002 14.2998H18.0002V15.2998C18.0002 15.8521 17.5525 16.2998 17.0002 16.2998C16.448 16.2998 16.0002 15.8521 16.0002 15.2998V14.2998H15.0002C14.448 14.2998 14.0002 13.8521 14.0002 13.2998C14.0002 12.7475 14.448 12.2998 15.0002 12.2998H16.0002V11.2998C16.0002 10.7475 16.448 10.2998 17.0002 10.2998Z" fill="#0178E5"/>
</svg>
