<svg width="16" height="22" viewBox="0 0 16 22" fill="none" xmlns="http://www.w3.org/2000/svg">
<path fill-rule="evenodd" clip-rule="evenodd" d="M12.3639 3.09991H14.5457C14.9315 3.09991 15.3014 3.25316 15.5742 3.52594C15.847 3.79872 16.0002 4.16868 16.0002 4.55445V19.8272C16.0002 20.2129 15.847 20.5829 15.5742 20.8557C15.3014 21.1285 14.9315 21.2817 14.5457 21.2817H1.45479C1.06902 21.2817 0.699051 21.1285 0.426271 20.8557C0.15349 20.5829 0.000244141 20.2129 0.000244141 19.8272V4.55445C0.000244141 4.16868 0.15349 3.79872 0.426271 3.52594C0.699051 3.25316 1.06902 3.09991 1.45479 3.09991H3.63661V2.37264C3.63661 1.98687 3.78985 1.6169 4.06263 1.34412C4.33541 1.07134 4.70538 0.918091 5.09115 0.918091H10.9093C11.2951 0.918091 11.6651 1.07134 11.9379 1.34412C12.2106 1.6169 12.3639 1.98687 12.3639 2.37264V3.09991ZM10.9093 2.37264H5.09115V5.28173H10.9093V2.37264ZM1.45479 19.8272H14.5457V4.55445H12.3639V6.73627H3.63661V4.55445H1.45479V19.8272ZM12.3639 8.91809H3.63661V10.3726H12.3639V8.91809ZM9.45479 12.5545H3.63661V14.009H9.45479V12.5545ZM3.63661 16.1908H7.27297V17.6454H3.63661V16.1908Z" fill="#646C7C"/>
</svg>
