<svg width="1542" height="1205" viewBox="0 0 1542 1205" fill="none" xmlns="http://www.w3.org/2000/svg">
<rect width="1542" height="1205" fill="white"/>
<path fill-rule="evenodd" clip-rule="evenodd" d="M976.599 144.834C1025.33 71.6686 1042.45 50.8581 1061.21 41.9647C1095.35 25.7781 1114.26 31.8315 1189.12 82.8898C1297.34 156.7 1327.39 181.844 1367.13 231.852C1393.79 265.396 1413.35 295.65 1430.37 331.06C1477.49 411.512 1528.95 586.597 1431.61 775.757C1409.43 824.826 1383.97 859.854 1338.72 907.932C1263.37 987.992 1180.07 1035.32 1072.88 1058.97C1004.5 1074.05 882.178 1069.41 819.052 1049.34C766.034 1032.48 711.891 1005.86 662.612 972.438C642.672 958.92 622.328 946.308 617.4 944.416C611.245 942.051 585.967 974.07 536.618 1046.75C434.727 1196.81 431.551 1197.55 295.082 1103.14C250.446 1072.27 198.833 1032.16 180.386 1014C56.7019 892.283 0.711119 711.681 35.0862 545.286C46.6943 489.111 83.1632 401.119 112.535 358.441C235.871 179.219 457.418 94.617 665.332 147.358C730.976 164.006 781.944 187.505 848.689 231.884C868.5 245.055 879.293 254.33 889.653 253.868C906.816 253.103 922.788 225.613 976.599 144.834ZM1233.63 814.057C1392.88 650.818 1367.94 382.168 1181.3 250.467C1159.51 235.091 1134.42 217.892 1125.55 212.243L1109.42 201.971L902.56 508.346C788.782 676.847 695.734 816.986 695.779 819.762C695.918 828.27 788.105 885.369 827.174 901.151C965.699 957.099 1128.02 922.316 1233.63 814.057ZM766.717 348.245C704.521 307.484 672.796 293.752 612.143 281.329C585.328 275.839 552.591 271.6 539.395 271.91C490.11 273.087 420.069 290.178 376.667 311.627C251.237 373.61 169.626 503.134 168.886 641.375C168.095 790.47 242.728 909.703 390.009 994.64C397.391 998.897 421.866 963.93 697.657 555.103L815.592 380.27L766.717 348.245Z" fill="black"/>
</svg>
