<svg width="19" height="19" viewBox="0 0 19 19" fill="none" xmlns="http://www.w3.org/2000/svg">
<path d="M14.4651 4.85712H0.599693C0.138267 4.85712 -0.149888 5.35998 0.0817663 5.76113L4.46249 13.208V17.7394C4.46249 18.0727 4.72993 18.342 5.0614 18.342H10.0034C10.3348 18.342 10.6023 18.0727 10.6023 17.7394V13.208L14.9849 5.76113C15.2146 5.35998 14.9265 4.85712 14.4651 4.85712ZM9.25378 16.986H5.81098V14.048H9.25566V16.986H9.25378ZM9.43458 12.53L9.25566 12.8426H5.8091L5.63018 12.53L1.89545 6.21314H13.1693L9.43458 12.53Z" fill="#DEDEDE"/>
<circle cx="14" cy="5" r="5" fill="#DEDEDE"/>
<path d="M13.704 7.208V5.696H12.272V5.024H13.704V3.512H14.4V5.024H15.832V5.696H14.4V7.208H13.704Z" fill="#F7F7F7"/>
</svg>
