<svg width="26" height="24" viewBox="0 0 26 24" fill="none" xmlns="http://www.w3.org/2000/svg">
<path d="M3 0.75C1.6125 0.75 0.5 1.8625 0.5 3.25V8.25C0.5 9.6375 1.6125 10.75 3 10.75H8C9.3875 10.75 10.5 9.6375 10.5 8.25V3.25C10.5 1.8625 9.3875 0.75 8 0.75H3ZM8.25 2.625L9.575 3.9375L4.5875 8.875L1.425 5.6875L2.7625 4.375L4.6 6.2375L8.25 2.625ZM3 13.25C1.6125 13.25 0.5 14.3625 0.5 15.75V20.75C0.5 22.1375 1.6125 23.25 3 23.25H8C9.3875 23.25 10.5 22.1375 10.5 20.75V15.75C10.5 14.3625 9.3875 13.25 8 13.25H3ZM3 15.75H8V20.75H3V15.75ZM13 3.25H25.5V5.75H13V3.25ZM13 20.75V18.25H25.5V20.75H13ZM13 10.75H25.5V13.25H13V10.75Z" fill="#0178E5"/>
</svg>
