<svg width="16" height="16" viewBox="0 0 16 16" fill="none" xmlns="http://www.w3.org/2000/svg">
<path d="M14.8571 14.5714V4.85714C14.8571 4.77976 14.8289 4.7128 14.7723 4.65625C14.7158 4.5997 14.6488 4.57143 14.5714 4.57143H4.85714C4.77976 4.57143 4.7128 4.5997 4.65625 4.65625C4.5997 4.7128 4.57143 4.77976 4.57143 4.85714V14.5714C4.57143 14.6488 4.5997 14.7158 4.65625 14.7723C4.7128 14.8289 4.77976 14.8571 4.85714 14.8571H14.5714C14.6488 14.8571 14.7158 14.8289 14.7723 14.7723C14.8289 14.7158 14.8571 14.6488 14.8571 14.5714ZM16 4.85714V14.5714C16 14.9643 15.8601 15.3006 15.5804 15.5804C15.3006 15.8601 14.9643 16 14.5714 16H4.85714C4.46429 16 4.12798 15.8601 3.84821 15.5804C3.56845 15.3006 3.42857 14.9643 3.42857 14.5714V4.85714C3.42857 4.46429 3.56845 4.12798 3.84821 3.84821C4.12798 3.56845 4.46429 3.42857 4.85714 3.42857H14.5714C14.9643 3.42857 15.3006 3.56845 15.5804 3.84821C15.8601 4.12798 16 4.46429 16 4.85714ZM12.5714 1.42857V2.85714H11.4286V1.42857C11.4286 1.35119 11.4003 1.28423 11.3438 1.22768C11.2872 1.17113 11.2202 1.14286 11.1429 1.14286H1.42857C1.35119 1.14286 1.28423 1.17113 1.22768 1.22768C1.17113 1.28423 1.14286 1.35119 1.14286 1.42857V11.1429C1.14286 11.2202 1.17113 11.2872 1.22768 11.3438C1.28423 11.4003 1.35119 11.4286 1.42857 11.4286H2.85714V12.5714H1.42857C1.03571 12.5714 0.699405 12.4315 0.419643 12.1518C0.139881 11.872 0 11.5357 0 11.1429V1.42857C0 1.03571 0.139881 0.699405 0.419643 0.419643C0.699405 0.139881 1.03571 0 1.42857 0H11.1429C11.5357 0 11.872 0.139881 12.1518 0.419643C12.4315 0.699405 12.5714 1.03571 12.5714 1.42857Z" fill="#DEDEDE"/>
</svg>
