<svg width="29" height="25" viewBox="0 0 29 25" fill="none" xmlns="http://www.w3.org/2000/svg">
<path d="M19.3382 0C19.7046 0 20.0559 0.125431 20.315 0.348701C20.574 0.571971 20.7195 0.874789 20.7195 1.19054V2.37989L27.6261 2.38108V9.52432L24.8358 9.52313L28.6579 18.5665C28.917 19.1711 29.0309 19.8148 28.9928 20.4586C28.9548 21.1023 28.7655 21.7327 28.4364 22.3115C28.1073 22.8904 27.6454 23.4056 27.0785 23.826C26.5116 24.2464 25.8516 24.5632 25.1384 24.7573C24.4253 24.9514 23.6738 25.0187 22.9296 24.9551C22.1854 24.8915 21.4639 24.6983 20.8089 24.3873C20.1538 24.0763 19.5788 23.6539 19.1188 23.1457C18.6587 22.6376 18.3231 22.0542 18.1324 21.4309H12.2577C11.9435 22.4758 11.2269 23.3977 10.2254 24.0457C9.22393 24.6938 7.99681 25.0295 6.74502 24.998C5.49323 24.9664 4.29096 24.5695 3.33509 23.8721C2.37921 23.1748 1.72639 22.2184 1.48352 21.1595C1.03579 20.9583 0.660699 20.6552 0.399109 20.283C0.13752 19.9108 -0.000529746 19.4838 1.52765e-06 19.0486V3.57162C1.52765e-06 3.25587 0.145531 2.95305 0.404576 2.72978C0.66362 2.50651 1.01496 2.38108 1.3813 2.38108H11.0504C11.4168 2.38108 11.7681 2.50651 12.0271 2.72978C12.2862 2.95305 12.4317 3.25587 12.4317 3.57162V13.0959C12.4318 13.3875 12.556 13.669 12.7808 13.8869C13.0056 14.1048 13.3154 14.244 13.6514 14.2781L13.813 14.2865H16.5756C16.914 14.2864 17.2405 14.1794 17.4933 13.9856C17.7462 13.7918 17.9077 13.5248 17.9473 13.2352L17.9569 13.0959V2.38108H13.813V0H19.3382ZM6.90651 17.8581C6.17383 17.8581 5.47115 18.109 4.95306 18.5555C4.43497 19.002 4.14391 19.6077 4.14391 20.2392C4.14391 20.8707 4.43497 21.4763 4.95306 21.9229C5.47115 22.3694 6.17383 22.6203 6.90651 22.6203C7.6392 22.6203 8.34188 22.3694 8.85997 21.9229C9.37806 21.4763 9.66912 20.8707 9.66912 20.2392C9.66912 19.6077 9.37806 19.002 8.85997 18.5555C8.34188 18.109 7.6392 17.8581 6.90651 17.8581ZM23.4821 17.8569C22.7495 17.8569 22.0468 18.1078 21.5287 18.5543C21.0106 19.0009 20.7195 19.6065 20.7195 20.238C20.7195 20.8695 21.0106 21.4751 21.5287 21.9217C22.0468 22.3682 22.7495 22.6191 23.4821 22.6191C24.2148 22.6191 24.9175 22.3682 25.4356 21.9217C25.9537 21.4751 26.2447 20.8695 26.2447 20.238C26.2447 19.6065 25.9537 19.0009 25.4356 18.5543C24.9175 18.1078 24.2148 17.8569 23.4821 17.8569ZM21.8964 9.52313H20.7195V13.0959C20.7195 14.0432 20.283 14.9517 19.5058 15.6215C18.7287 16.2913 17.6747 16.6676 16.5756 16.6676H13.813C12.956 16.6675 12.1201 16.4385 11.4203 16.0121C10.7204 15.5857 10.1912 14.9828 9.90532 14.2865H2.76261V17.089C3.42679 16.4408 4.28316 15.9606 5.2399 15.6999C6.19663 15.4392 7.21764 15.4079 8.19346 15.6093C9.16927 15.8107 10.0631 16.2372 10.7791 16.8431C11.495 17.449 12.0062 18.2114 12.2577 19.0486H18.131C18.479 17.8876 19.3223 16.8824 20.4923 16.2336C21.6624 15.5848 23.0734 15.3401 24.4435 15.5485L21.8964 9.52313ZM9.66912 8.33378H2.76261V11.9054H9.66912V8.33378ZM24.8634 4.76216H20.7195V7.14324H24.8634V4.76216ZM9.66912 4.76216H2.76261V5.9527H9.66912V4.76216Z" fill="#6EC9A8"/>
</svg>
