<svg width="26" height="26" viewBox="0 0 26 26" fill="none" xmlns="http://www.w3.org/2000/svg">
<path d="M18 13C17.3096 13 16.75 13.5596 16.75 14.25V16.75C16.75 17.4404 17.3096 18 18 18C18.6904 18 19.25 17.4404 19.25 16.75V14.25C19.25 13.5596 18.6904 13 18 13Z" fill="#0178E5"/>
<path fill-rule="evenodd" clip-rule="evenodd" d="M0.5 4.25C0.5 2.17893 2.17893 0.5 4.25 0.5H21.75C23.8211 0.5 25.5 2.17893 25.5 4.25V6.75C25.5 7.86063 25.0172 8.85848 24.25 9.54513V21.75C24.25 23.8211 22.5711 25.5 20.5 25.5H5.5C3.42893 25.5 1.75 23.8211 1.75 21.75V9.54513C0.982813 8.85848 0.5 7.86062 0.5 6.75V4.25ZM18 6.75V3H21.75C22.4404 3 23 3.55964 23 4.25V6.75C23 7.44036 22.4404 8 21.75 8H19.25C18.5596 8 18 7.44036 18 6.75ZM15.5 3V6.75C15.5 7.44036 14.9404 8 14.25 8H11.75C11.0596 8 10.5 7.44036 10.5 6.75V3H15.5ZM19.25 10.5C18.2896 10.5 17.4135 10.1389 16.75 9.54513C16.0866 10.1389 15.2104 10.5 14.25 10.5H11.75C10.7896 10.5 9.91345 10.1389 9.25 9.54513C8.58655 10.1389 7.71044 10.5 6.75 10.5H4.25V21.75C4.25 22.4404 4.80964 23 5.5 23H6.75V15.9167C6.75 14.9085 7.36297 14.1487 8.03886 13.6981C8.72349 13.2417 9.59728 13 10.5 13C11.4027 13 12.2765 13.2417 12.9611 13.6981C13.637 14.1487 14.25 14.9085 14.25 15.9167V23H20.5C21.1904 23 21.75 22.4404 21.75 21.75V10.5H19.25ZM8 6.75V3H4.25C3.55964 3 3 3.55964 3 4.25V6.75C3 7.44036 3.55964 8 4.25 8H6.75C7.44036 8 8 7.44036 8 6.75ZM11.75 23V15.9411C11.7367 15.9163 11.6942 15.8581 11.5744 15.7782C11.3542 15.6314 10.978 15.5 10.5 15.5C10.022 15.5 9.6458 15.6314 9.42561 15.7782C9.30581 15.8581 9.2633 15.9163 9.25 15.9411V23H11.75ZM9.24469 15.9543C9.2445 15.9551 9.24457 15.9543 9.24469 15.9543C9.24499 15.9544 9.24618 15.9518 9.24736 15.9463C9.24587 15.9496 9.245 15.953 9.24469 15.9543ZM11.7526 15.9463C11.7538 15.9518 11.755 15.9544 11.7553 15.9543C11.7555 15.9543 11.7553 15.9531 11.7545 15.9508L11.7526 15.9463Z" fill="#0178E5"/>
</svg>
