<svg width="20" height="20" viewBox="0 0 20 20" fill="none" xmlns="http://www.w3.org/2000/svg">
<path d="M20 10C20 11.3132 19.7413 12.6136 19.2388 13.8268C18.7362 15.0401 17.9997 16.1425 17.0711 17.0711C16.1425 17.9997 15.0401 18.7362 13.8268 19.2388C12.6136 19.7413 11.3132 20 10 20C8.68678 20 7.38642 19.7413 6.17317 19.2388C4.95991 18.7362 3.85752 17.9997 2.92893 17.0711C2.00035 16.1425 1.26375 15.0401 0.761204 13.8268C0.258657 12.6136 -1.95685e-08 11.3132 0 10C3.95203e-08 7.34784 1.05357 4.8043 2.92893 2.92893C4.8043 1.05357 7.34783 0 10 0C12.6522 0 15.1957 1.05357 17.0711 2.92893C18.9464 4.8043 20 7.34784 20 10ZM15.2311 5.88C15.1279 5.77653 15.0053 5.69443 14.8703 5.63842C14.7353 5.5824 14.5906 5.55357 14.4444 5.55357C14.2983 5.55357 14.1536 5.5824 14.0186 5.63842C13.8836 5.69443 13.761 5.77653 13.6578 5.88L7.77778 11.7622L6.34222 10.3244C6.23891 10.2211 6.11627 10.1392 5.9813 10.0833C5.84632 10.0274 5.70165 9.9986 5.55555 9.9986C5.40946 9.9986 5.26479 10.0274 5.12981 10.0833C4.99484 10.1392 4.8722 10.2211 4.76889 10.3244C4.66558 10.4278 4.58363 10.5504 4.52773 10.6854C4.47182 10.8203 4.44304 10.965 4.44304 11.1111C4.44304 11.2572 4.47182 11.4019 4.52773 11.5369C4.58363 11.6718 4.66558 11.7945 4.76889 11.8978L6.99111 14.12C7.09432 14.2235 7.21694 14.3056 7.35192 14.3616C7.48691 14.4176 7.63163 14.4464 7.77778 14.4464C7.92393 14.4464 8.06864 14.4176 8.20363 14.3616C8.33862 14.3056 8.46123 14.2235 8.56444 14.12L15.2311 7.45333C15.3346 7.35012 15.4167 7.22751 15.4727 7.09252C15.5287 6.95753 15.5575 6.81282 15.5575 6.66667C15.5575 6.52052 15.5287 6.3758 15.4727 6.24082C15.4167 6.10583 15.3346 5.98321 15.2311 5.88Z" fill="#6EC9A8"/>
</svg>
