<svg width="24" height="24" viewBox="0 0 24 24" fill="none" xmlns="http://www.w3.org/2000/svg">
<path d="M21.333 4H2.66634C2.31272 4 1.97358 4.14048 1.72353 4.39052C1.47348 4.64057 1.33301 4.97971 1.33301 5.33333V18.6667C1.33301 19.0203 1.47348 19.3594 1.72353 19.6095C1.97358 19.8595 2.31272 20 2.66634 20H21.333C21.6866 20 22.0258 19.8595 22.2758 19.6095C22.5259 19.3594 22.6663 19.0203 22.6663 18.6667V5.33333C22.6663 4.97971 22.5259 4.64057 22.2758 4.39052C22.0258 4.14048 21.6866 4 21.333 4ZM20.3063 18.6667H3.77301L8.43967 13.84L7.47967 12.9133L2.66634 17.8933V6.34667L10.953 14.5933C11.2028 14.8417 11.5408 14.9811 11.893 14.9811C12.2453 14.9811 12.5832 14.8417 12.833 14.5933L21.333 6.14V17.8067L16.4263 12.9L15.4863 13.84L20.3063 18.6667ZM3.53967 5.33333H20.253L11.893 13.6467L3.53967 5.33333Z" fill="#646C7C"/>
</svg>
