<svg width="232" height="180" viewBox="0 0 232 180" fill="none" xmlns="http://www.w3.org/2000/svg">
<path fill-rule="evenodd" clip-rule="evenodd" d="M151.405 17.5221C159.109 5.95511 161.815 2.66511 164.781 1.25911C170.177 -1.29989 173.167 -0.342885 185 7.72911C202.108 19.3981 206.858 23.3731 213.14 31.2791C217.942 37.323 221.288 42.6913 224.244 49.3608C225.848 52.4506 227.395 56.4487 228.658 61.0366C229.203 62.7622 229.584 64.2584 229.849 65.9569C232.547 78.7842 232.826 94.8306 226.778 108.569C222.17 121.548 218.197 128.018 208.649 138.163C196.737 150.82 183.57 158.302 166.625 162.041C155.816 164.426 136.479 163.692 126.5 160.519C118.119 157.853 109.56 153.645 101.77 148.361C98.6181 146.224 95.4021 144.23 94.6231 143.931C93.6501 143.557 89.6541 148.619 81.8531 160.109C65.7461 183.833 65.2441 183.95 43.6711 169.025C36.6151 164.144 28.4561 157.802 25.5401 154.932C5.98809 135.689 -2.86291 107.137 2.57109 80.8311C4.40609 71.9501 10.1711 58.0391 14.8141 51.2921C34.3111 22.9581 69.3331 9.58311 102.2 17.9211C112.577 20.5531 120.634 24.2681 131.185 31.2841C134.317 33.3664 136.023 34.8328 137.661 34.7598C140.374 34.6389 142.899 30.2928 151.405 17.5221ZM192.037 123.322C217.211 97.5151 213.268 55.0431 183.764 34.2221C180.319 31.7911 176.353 29.0721 174.951 28.1791L172.402 26.5551L139.701 74.9911C121.715 101.63 107.006 123.785 107.013 124.224C107.035 125.569 121.608 134.596 127.784 137.091C149.682 145.936 175.342 140.437 192.037 123.322ZM118.227 49.6801C108.395 43.2361 103.38 41.0651 93.7921 39.1011C89.5531 38.2331 84.3781 37.5631 82.2921 37.6121C74.5011 37.7981 63.4291 40.5001 56.5681 43.8911C36.7401 53.6901 23.8391 74.1671 23.7221 96.0221C23.5971 119.593 35.3951 138.443 58.6771 151.871C59.8441 152.544 63.7131 147.016 107.31 82.3831L125.953 54.7431L118.227 49.6801Z" fill="black"/>
</svg>
