<svg width="16" height="16" viewBox="0 0 16 16" fill="none" xmlns="http://www.w3.org/2000/svg">
<g clip-path="url(#clip0)">
<path d="M9.20802 0.406665C9.12892 0.342415 9.0248 0.317852 8.92536 0.340008L0.258702 2.34001C0.106171 2.37507 -0.0014539 2.51151 1.48502e-05 2.66801V14.0014C7.73502e-05 14.1658 0.120109 14.3057 0.282671 14.3307L8.94933 15.664C9.1313 15.692 9.30148 15.5672 9.32945 15.3853C9.33202 15.3685 9.33333 15.3516 9.33333 15.3347V0.668008C9.33364 0.566352 9.28748 0.470133 9.20802 0.406665Z" fill="#4CAF50"/>
<path d="M15.6667 14.3346H9.00003C8.81594 14.3346 8.66669 14.1854 8.66669 14.0013C8.66669 13.8172 8.81594 13.6679 9.00003 13.6679H15.3334V2.33462H9.00003C8.81594 2.33462 8.66669 2.18537 8.66669 2.00128C8.66669 1.81719 8.81594 1.66797 9.00003 1.66797H15.6667C15.8508 1.66797 16 1.81722 16 2.00131V14.0013C16 14.1854 15.8508 14.3346 15.6667 14.3346Z" fill="#4CAF50"/>
<path d="M6.33339 11.0018C6.21845 11.0018 6.11164 10.9426 6.05073 10.8452L2.71739 5.51183C2.61492 5.35889 2.65585 5.15183 2.80879 5.04936C2.96173 4.94689 3.16879 4.98783 3.27126 5.14076C3.27529 5.14676 3.2791 5.15289 3.28273 5.15914L6.61607 10.4925C6.71326 10.6488 6.66532 10.8544 6.50898 10.9516C6.45626 10.9843 6.39545 11.0017 6.33339 11.0018Z" fill="#FAFAFA"/>
<path d="M3.00063 11.0014C2.81653 11.001 2.66759 10.8515 2.66797 10.6674C2.66809 10.6051 2.68566 10.5442 2.71863 10.4914L6.05197 5.15806C6.14428 4.99878 6.34825 4.9445 6.5075 5.03681C6.66678 5.12913 6.72106 5.33309 6.62875 5.49234C6.62513 5.49859 6.62131 5.50472 6.61728 5.51072L3.28397 10.8441C3.22309 10.942 3.11594 11.0015 3.00063 11.0014Z" fill="#FAFAFA"/>
<path d="M11.6667 14.3348C11.4826 14.3348 11.3333 14.1855 11.3333 14.0014V2.00143C11.3333 1.81734 11.4826 1.66809 11.6667 1.66809C11.8508 1.66809 12 1.81734 12 2.00143V14.0014C12 14.1856 11.8508 14.3348 11.6667 14.3348Z" fill="#4CAF50"/>
<path d="M15.6667 12.3348H8.99997C8.81588 12.3348 8.66663 12.1855 8.66663 12.0014C8.66663 11.8173 8.81588 11.6681 8.99997 11.6681H15.6666C15.8507 11.6681 16 11.8173 16 12.0014C16 12.1856 15.8508 12.3348 15.6667 12.3348Z" fill="#4CAF50"/>
<path d="M15.6667 10.3348H8.99997C8.81588 10.3348 8.66663 10.1855 8.66663 10.0014C8.66663 9.81734 8.81588 9.66809 8.99997 9.66809H15.6666C15.8507 9.66809 16 9.81734 16 10.0014C16 10.1856 15.8508 10.3348 15.6667 10.3348Z" fill="#4CAF50"/>
<path d="M15.6667 8.33478H8.99997C8.81588 8.33478 8.66663 8.18553 8.66663 8.00143C8.66663 7.81734 8.81588 7.66809 8.99997 7.66809H15.6666C15.8507 7.66809 16 7.81734 16 8.00143C16 8.18556 15.8508 8.33478 15.6667 8.33478Z" fill="#4CAF50"/>
<path d="M15.6667 6.33478H8.99997C8.81588 6.33478 8.66663 6.18553 8.66663 6.00143C8.66663 5.81734 8.81588 5.66809 8.99997 5.66809H15.6666C15.8507 5.66809 16 5.81734 16 6.00143C16 6.18553 15.8508 6.33478 15.6667 6.33478Z" fill="#4CAF50"/>
<path d="M15.6667 4.33477H8.99997C8.81588 4.33477 8.66663 4.18553 8.66663 4.00143C8.66663 3.81734 8.81588 3.66809 8.99997 3.66809H15.6666C15.8507 3.66809 16 3.81734 16 4.00143C16 4.18556 15.8508 4.33477 15.6667 4.33477Z" fill="#4CAF50"/>
</g>
<defs>
<clipPath id="clip0">
<rect width="16" height="16" fill="white"/>
</clipPath>
</defs>
</svg>
