<svg width="26" height="29" viewBox="0 0 26 29" fill="none" xmlns="http://www.w3.org/2000/svg">
<path d="M9.60179 14C9.60179 14.8702 9.94749 15.7048 10.5628 16.3202C11.1782 16.9355 12.0128 17.2812 12.883 17.2812C13.7533 17.2812 14.5879 16.9355 15.2032 16.3202C15.8186 15.7048 16.1643 14.8702 16.1643 14C16.1643 13.1298 15.8186 12.2952 15.2032 11.6798C14.5879 11.0645 13.7533 10.7188 12.883 10.7188C12.0128 10.7188 11.1782 11.0645 10.5628 11.6798C9.94749 12.2952 9.60179 13.1298 9.60179 14V14ZM25.6037 13.2441C22.8264 7.39356 18.6282 4.44922 13.0002 4.44922C7.36937 4.44922 3.17406 7.39355 0.396715 13.2471C0.285314 13.483 0.227539 13.7406 0.227539 14.0015C0.227539 14.2623 0.285314 14.52 0.396715 14.7559C3.17406 20.6064 7.3723 23.5508 13.0002 23.5508C18.6311 23.5508 22.8264 20.6064 25.6037 14.7529C25.8293 14.2783 25.8293 13.7275 25.6037 13.2441V13.2441ZM12.883 19.1562C10.0354 19.1562 7.72679 16.8477 7.72679 14C7.72679 11.1523 10.0354 8.84375 12.883 8.84375C15.7307 8.84375 18.0393 11.1523 18.0393 14C18.0393 16.8477 15.7307 19.1562 12.883 19.1562Z" fill="#F5697A"/>
<line x1="22.4069" y1="0.290619" x2="2.40687" y2="28.2906" stroke="#F5697A"/>
</svg>
