<svg width="26" height="20" viewBox="0 0 26 20" fill="none" xmlns="http://www.w3.org/2000/svg">
<path d="M9.60179 10C9.60179 10.8702 9.94749 11.7048 10.5628 12.3202C11.1782 12.9355 12.0128 13.2812 12.883 13.2812C13.7533 13.2812 14.5879 12.9355 15.2032 12.3202C15.8186 11.7048 16.1643 10.8702 16.1643 10C16.1643 9.12976 15.8186 8.29516 15.2032 7.67981C14.5879 7.06445 13.7533 6.71875 12.883 6.71875C12.0128 6.71875 11.1782 7.06445 10.5628 7.67981C9.94749 8.29516 9.60179 9.12976 9.60179 10ZM25.6037 9.24414C22.8264 3.39356 18.6282 0.449219 13.0002 0.449219C7.36937 0.449219 3.17406 3.39355 0.396715 9.24707C0.285314 9.48296 0.227539 9.74059 0.227539 10.0015C0.227539 10.2623 0.285314 10.52 0.396715 10.7559C3.17406 16.6064 7.3723 19.5508 13.0002 19.5508C18.6311 19.5508 22.8264 16.6064 25.6037 10.7529C25.8293 10.2783 25.8293 9.72754 25.6037 9.24414ZM12.883 15.1562C10.0354 15.1562 7.72679 12.8477 7.72679 10C7.72679 7.15234 10.0354 4.84375 12.883 4.84375C15.7307 4.84375 18.0393 7.15234 18.0393 10C18.0393 12.8477 15.7307 15.1562 12.883 15.1562Z" fill="#6EC9A8"/>
</svg>
