<svg width="20" height="23" viewBox="0 0 20 23" fill="none" xmlns="http://www.w3.org/2000/svg">
<path fill-rule="evenodd" clip-rule="evenodd" d="M9.51454 0.625843C9.81656 0.458052 10.1838 0.458052 10.4858 0.625843L19.4858 5.62584C19.8033 5.80221 20.0002 6.13683 20.0002 6.5C20.0002 6.86317 19.8033 7.19779 19.4858 7.37416L10.4858 12.3742C10.1838 12.5419 9.81656 12.5419 9.51454 12.3742L0.514539 7.37416C0.197074 7.19779 0.000182166 6.86317 0.000182166 6.5C0.000182166 6.13683 0.197074 5.80221 0.514539 5.62584L9.51454 0.625843ZM3.05931 6.5L10.0002 10.356L16.9411 6.5L10.0002 2.64396L3.05931 6.5ZM0.126025 11.0144C0.394238 10.5316 1.00304 10.3576 1.48583 10.6258L10.0002 15.356L18.5145 10.6258C18.9973 10.3576 19.6061 10.5316 19.8743 11.0144C20.1426 11.4971 19.9686 12.1059 19.4858 12.3742L10.4858 17.3742C10.1838 17.5419 9.81656 17.5419 9.51454 17.3742L0.514539 12.3742C0.0317555 12.1059 -0.142188 11.4971 0.126025 11.0144ZM1.48583 15.6258C1.00304 15.3576 0.394238 15.5316 0.126025 16.0144C-0.142188 16.4971 0.0317555 17.1059 0.514539 17.3742L9.51454 22.3742C9.81656 22.5419 10.1838 22.5419 10.4858 22.3742L19.4858 17.3742C19.9686 17.1059 20.1426 16.4971 19.8743 16.0144C19.6061 15.5316 18.9973 15.3576 18.5145 15.6258L10.0002 20.356L1.48583 15.6258Z" fill="#646C7C"/>
</svg>
