<svg width="20" height="17" viewBox="0 0 20 17" fill="none" xmlns="http://www.w3.org/2000/svg">
<path fill-rule="evenodd" clip-rule="evenodd" d="M11.6787 3.43514C15.3562 4.21061 18.1251 7.48092 18.1251 11.3858C18.1251 12.1 17.5461 12.679 16.8319 12.679H3.16837C2.45413 12.679 1.87512 12.1 1.87512 11.3858C1.87512 7.48091 4.64404 4.2107 8.32159 3.43516C8.90934 3.31121 9.37512 2.82063 9.37512 2.21995V1.6958C9.37512 1.35062 9.65494 1.0708 10.0001 1.0708C10.3453 1.0708 10.6251 1.35062 10.6251 1.6958V2.21993C10.6251 2.82061 11.0909 3.3112 11.6787 3.43514ZM16.8319 11.429C16.8558 11.429 16.8751 11.4096 16.8751 11.3858C16.8751 7.59486 13.791 4.51076 10.0001 4.51076C6.20922 4.51076 3.12512 7.5949 3.12512 11.3858C3.12512 11.4096 3.14448 11.429 3.16837 11.429H16.8319Z" fill="#646C7C"/>
<path d="M1.25012 14.679C0.904944 14.679 0.625122 14.9588 0.625122 15.304C0.625122 15.6491 0.904945 15.929 1.25012 15.929H18.7501C19.0953 15.929 19.3751 15.6491 19.3751 15.304C19.3751 14.9588 19.0953 14.679 18.7501 14.679H1.25012Z" fill="#646C7C"/>
<path fill-rule="evenodd" clip-rule="evenodd" d="M11.6787 3.43514C15.3562 4.21061 18.1251 7.48092 18.1251 11.3858C18.1251 12.1 17.5461 12.679 16.8319 12.679H3.16837C2.45413 12.679 1.87512 12.1 1.87512 11.3858C1.87512 7.48091 4.64404 4.2107 8.32159 3.43516C8.90934 3.31121 9.37512 2.82063 9.37512 2.21995V1.6958C9.37512 1.35062 9.65494 1.0708 10.0001 1.0708C10.3453 1.0708 10.6251 1.35062 10.6251 1.6958V2.21993C10.6251 2.82061 11.0909 3.3112 11.6787 3.43514ZM16.8319 11.429C16.8558 11.429 16.8751 11.4096 16.8751 11.3858C16.8751 7.59486 13.791 4.51076 10.0001 4.51076C6.20922 4.51076 3.12512 7.5949 3.12512 11.3858C3.12512 11.4096 3.14448 11.429 3.16837 11.429H16.8319Z" stroke="#646C7C" strokeWidth="0.5"/>
<path d="M1.25012 14.679C0.904944 14.679 0.625122 14.9588 0.625122 15.304C0.625122 15.6491 0.904945 15.929 1.25012 15.929H18.7501C19.0953 15.929 19.3751 15.6491 19.3751 15.304C19.3751 14.9588 19.0953 14.679 18.7501 14.679H1.25012Z" stroke="#646C7C" strokeWidth="0.5"/>
</svg>
