<svg width="22" height="23" viewBox="0 0 22 23" fill="none" xmlns="http://www.w3.org/2000/svg">
<path fill-rule="evenodd" clip-rule="evenodd" d="M10.5146 0.625904C10.8166 0.458113 11.1838 0.458113 11.4858 0.625904L20.4858 5.6259C20.8033 5.80227 21.0002 6.13689 21.0002 6.50006C21.0002 6.86323 20.8033 7.19785 20.4858 7.37422L11.4858 12.3742C11.1838 12.542 10.8166 12.542 10.5146 12.3742L1.51455 7.37422C1.19709 7.19785 1.00019 6.86323 1.00019 6.50006C1.00019 6.13689 1.19709 5.80227 1.51455 5.6259L10.5146 0.625904ZM4.05932 6.50006L11.0002 10.3561L17.9411 6.50006L11.0002 2.64402L4.05932 6.50006ZM1.12604 11.0144C1.39425 10.5316 2.00305 10.3577 2.48584 10.6259L11.0002 15.3561L19.5145 10.6259C19.9973 10.3577 20.6061 10.5316 20.8744 11.0144C21.1426 11.4972 20.9686 12.106 20.4858 12.3742L11.4858 17.3742C11.1838 17.542 10.8166 17.542 10.5146 17.3742L1.51455 12.3742C1.03177 12.106 0.857823 11.4972 1.12604 11.0144ZM2.48584 15.6259C2.00305 15.3577 1.39425 15.5316 1.12604 16.0144C0.857823 16.4972 1.03177 17.106 1.51455 17.3742L10.5146 22.3742C10.8166 22.542 11.1838 22.542 11.4858 22.3742L20.4858 17.3742C20.9686 17.106 21.1426 16.4972 20.8744 16.0144C20.6061 15.5316 19.9973 15.3577 19.5145 15.6259L11.0002 20.3561L2.48584 15.6259Z" fill="#0178E5"/>
<path d="M11.4858 0.625904L11.7287 0.188825L11.7287 0.188825L11.4858 0.625904ZM10.5146 0.625904L10.2717 0.188825L10.2717 0.188825L10.5146 0.625904ZM20.4858 5.6259L20.243 6.06298L20.243 6.06298L20.4858 5.6259ZM20.4858 7.37422L20.243 6.93714L20.243 6.93714L20.4858 7.37422ZM11.4858 12.3742L11.7287 12.8113L11.7287 12.8113L11.4858 12.3742ZM10.5146 12.3742L10.2717 12.8113L10.2717 12.8113L10.5146 12.3742ZM1.51455 7.37422L1.27173 7.8113L1.27173 7.8113L1.51455 7.37422ZM1.51455 5.6259L1.27173 5.18882L1.27173 5.18883L1.51455 5.6259ZM11.0002 10.3561L10.7574 10.7932C10.9084 10.8771 11.092 10.8771 11.243 10.7932L11.0002 10.3561ZM4.05932 6.50006L3.8165 6.06298C3.65777 6.15117 3.55932 6.31848 3.55932 6.50006C3.55932 6.68164 3.65777 6.84895 3.8165 6.93714L4.05932 6.50006ZM17.9411 6.50006L18.1839 6.93714C18.3426 6.84895 18.4411 6.68164 18.4411 6.50006C18.4411 6.31848 18.3426 6.15117 18.1839 6.06298L17.9411 6.50006ZM11.0002 2.64402L11.243 2.20694C11.092 2.12305 10.9084 2.12305 10.7574 2.20694L11.0002 2.64402ZM2.48584 10.6259L2.24301 11.063L2.24302 11.063L2.48584 10.6259ZM1.12604 11.0144L0.688958 10.7716L0.688958 10.7716L1.12604 11.0144ZM11.0002 15.3561L10.7574 15.7932C10.9084 15.8771 11.092 15.8771 11.243 15.7932L11.0002 15.3561ZM19.5145 10.6259L19.2717 10.1888L19.2717 10.1888L19.5145 10.6259ZM20.8744 11.0144L21.3114 10.7716L21.3114 10.7716L20.8744 11.0144ZM20.4858 12.3742L20.243 11.9371L20.243 11.9371L20.4858 12.3742ZM11.4858 17.3742L11.7287 17.8113L11.7287 17.8113L11.4858 17.3742ZM10.5146 17.3742L10.2717 17.8113L10.2717 17.8113L10.5146 17.3742ZM1.51455 12.3742L1.27173 12.8113L1.27173 12.8113L1.51455 12.3742ZM1.12604 16.0144L0.688958 15.7716L0.688958 15.7716L1.12604 16.0144ZM2.48584 15.6259L2.24301 16.063L2.24302 16.063L2.48584 15.6259ZM1.51455 17.3742L1.27173 17.8113L1.27173 17.8113L1.51455 17.3742ZM10.5146 22.3742L10.2717 22.8113L10.2717 22.8113L10.5146 22.3742ZM11.4858 22.3742L11.7287 22.8113L11.7287 22.8113L11.4858 22.3742ZM20.4858 17.3742L20.243 16.9371L20.243 16.9371L20.4858 17.3742ZM20.8744 16.0144L21.3114 15.7716L21.3114 15.7716L20.8744 16.0144ZM19.5145 15.6259L19.2717 15.1888L19.2717 15.1888L19.5145 15.6259ZM11.0002 20.3561L10.7574 20.7932C10.9084 20.8771 11.092 20.8771 11.243 20.7932L11.0002 20.3561ZM11.7287 0.188825C11.2756 -0.0628603 10.7248 -0.0628603 10.2717 0.188825L10.7574 1.06298C10.9084 0.979087 11.092 0.979087 11.243 1.06298L11.7287 0.188825ZM20.7287 5.18882L11.7287 0.188825L11.243 1.06298L20.243 6.06298L20.7287 5.18882ZM21.5002 6.50006C21.5002 5.95531 21.2049 5.45338 20.7287 5.18882L20.243 6.06298C20.4017 6.15117 20.5002 6.31848 20.5002 6.50006H21.5002ZM20.7287 7.8113C21.2049 7.54674 21.5002 7.04481 21.5002 6.50006H20.5002C20.5002 6.68164 20.4017 6.84895 20.243 6.93714L20.7287 7.8113ZM11.7287 12.8113L20.7287 7.8113L20.243 6.93714L11.243 11.9371L11.7287 12.8113ZM10.2717 12.8113C10.7248 13.063 11.2756 13.063 11.7287 12.8113L11.243 11.9371C11.092 12.021 10.9084 12.021 10.7574 11.9371L10.2717 12.8113ZM1.27173 7.8113L10.2717 12.8113L10.7574 11.9371L1.75737 6.93714L1.27173 7.8113ZM0.500194 6.50006C0.500194 7.04481 0.795531 7.54674 1.27173 7.8113L1.75737 6.93714C1.59864 6.84895 1.50019 6.68164 1.50019 6.50006H0.500194ZM1.27173 5.18883C0.795531 5.45338 0.500194 5.95531 0.500194 6.50006H1.50019C1.50019 6.31848 1.59864 6.15117 1.75737 6.06298L1.27173 5.18883ZM10.2717 0.188825L1.27173 5.18882L1.75737 6.06298L10.7574 1.06298L10.2717 0.188825ZM11.243 9.91902L4.30214 6.06298L3.8165 6.93714L10.7574 10.7932L11.243 9.91902ZM17.6982 6.06298L10.7574 9.91902L11.243 10.7932L18.1839 6.93714L17.6982 6.06298ZM10.7574 3.0811L17.6982 6.93714L18.1839 6.06298L11.243 2.20694L10.7574 3.0811ZM4.30214 6.93714L11.243 3.0811L10.7574 2.20694L3.8165 6.06298L4.30214 6.93714ZM2.72866 10.1888C2.00448 9.78651 1.09128 10.0474 0.688958 10.7716L1.56311 11.2572C1.69722 11.0158 2.00162 10.9289 2.24301 11.063L2.72866 10.1888ZM11.243 14.919L2.72866 10.1888L2.24302 11.063L10.7574 15.7932L11.243 14.919ZM19.2717 10.1888L10.7574 14.919L11.243 15.7932L19.7574 11.063L19.2717 10.1888ZM21.3114 10.7716C20.9091 10.0474 19.9959 9.78651 19.2717 10.1888L19.7574 11.063C19.9988 10.9289 20.3032 11.0158 20.4373 11.2572L21.3114 10.7716ZM20.7287 12.8113C21.4528 12.409 21.7137 11.4958 21.3114 10.7716L20.4373 11.2572C20.5714 11.4986 20.4844 11.803 20.243 11.9371L20.7287 12.8113ZM11.7287 17.8113L20.7287 12.8113L20.243 11.9371L11.243 16.9371L11.7287 17.8113ZM10.2717 17.8113C10.7248 18.063 11.2756 18.063 11.7287 17.8113L11.243 16.9371C11.092 17.021 10.9084 17.021 10.7574 16.9371L10.2717 17.8113ZM1.27173 12.8113L10.2717 17.8113L10.7574 16.9371L1.75737 11.9371L1.27173 12.8113ZM0.688958 10.7716C0.286638 11.4958 0.547554 12.409 1.27173 12.8113L1.75737 11.9371C1.51598 11.803 1.42901 11.4986 1.56312 11.2572L0.688958 10.7716ZM1.56311 16.2572C1.69722 16.0158 2.00162 15.9289 2.24301 16.063L2.72866 15.1888C2.00448 14.7865 1.09128 15.0474 0.688958 15.7716L1.56311 16.2572ZM1.75737 16.9371C1.51598 16.803 1.42901 16.4986 1.56312 16.2572L0.688958 15.7716C0.286638 16.4958 0.547554 17.409 1.27173 17.8113L1.75737 16.9371ZM10.7574 21.9371L1.75737 16.9371L1.27173 17.8113L10.2717 22.8113L10.7574 21.9371ZM11.243 21.9371C11.092 22.021 10.9084 22.021 10.7574 21.9371L10.2717 22.8113C10.7248 23.063 11.2756 23.063 11.7287 22.8113L11.243 21.9371ZM20.243 16.9371L11.243 21.9371L11.7287 22.8113L20.7287 17.8113L20.243 16.9371ZM20.4373 16.2572C20.5714 16.4986 20.4844 16.803 20.243 16.9371L20.7287 17.8113C21.4528 17.409 21.7137 16.4958 21.3114 15.7716L20.4373 16.2572ZM19.7574 16.063C19.9988 15.9289 20.3032 16.0158 20.4373 16.2572L21.3114 15.7716C20.9091 15.0474 19.9959 14.7865 19.2717 15.1888L19.7574 16.063ZM11.243 20.7932L19.7574 16.063L19.2717 15.1888L10.7574 19.919L11.243 20.7932ZM2.24302 16.063L10.7574 20.7932L11.243 19.919L2.72866 15.1888L2.24302 16.063Z" fill="#0178E5"/>
</svg>
