<svg width="15" height="15" viewBox="0 0 15 15" fill="none" xmlns="http://www.w3.org/2000/svg">
<rect width="15" height="15" rx="7.5" fill="#DEDEDE"/>
<path d="M7.232 8.152C7.20533 7.97067 7.21067 7.80533 7.248 7.656C7.29067 7.50667 7.34933 7.368 7.424 7.24C7.49867 7.112 7.58133 6.99467 7.672 6.888C7.768 6.78133 7.85867 6.68 7.944 6.584C8.02933 6.48267 8.09867 6.38667 8.152 6.296C8.21067 6.2 8.24 6.10133 8.24 6C8.24 5.83467 8.18933 5.70933 8.088 5.624C7.992 5.53867 7.864 5.496 7.704 5.496C7.55467 5.496 7.42133 5.53067 7.304 5.6C7.192 5.66933 7.08267 5.75733 6.976 5.864L6.328 5.272C6.51467 5.05333 6.736 4.87733 6.992 4.744C7.25333 4.61067 7.54133 4.544 7.856 4.544C8.06933 4.544 8.26667 4.57067 8.448 4.624C8.63467 4.67733 8.79467 4.76 8.928 4.872C9.06667 4.984 9.17333 5.128 9.248 5.304C9.328 5.47467 9.368 5.67733 9.368 5.912C9.368 6.07733 9.33867 6.22667 9.28 6.36C9.22133 6.488 9.14667 6.608 9.056 6.72C8.97067 6.832 8.87733 6.94133 8.776 7.048C8.68 7.14933 8.58933 7.256 8.504 7.368C8.424 7.48 8.36 7.6 8.312 7.728C8.264 7.85067 8.248 7.992 8.264 8.152H7.232ZM7.744 10.096C7.54133 10.096 7.37333 10.0267 7.24 9.888C7.10667 9.744 7.04 9.568 7.04 9.36C7.04 9.14667 7.10667 8.97067 7.24 8.832C7.37333 8.688 7.54133 8.616 7.744 8.616C7.94667 8.616 8.11467 8.688 8.248 8.832C8.38667 8.97067 8.456 9.14667 8.456 9.36C8.456 9.568 8.38667 9.744 8.248 9.888C8.11467 10.0267 7.94667 10.096 7.744 10.096Z" fill="#4D5464"/>
</svg>
