<svg width="29" height="28" viewBox="0 0 29 28" fill="none" xmlns="http://www.w3.org/2000/svg">
<path d="M19 2.42052e-07C17.5946 -0.000322055 16.2087 0.328566 14.9532 0.960309C13.6978 1.59205 12.6079 2.50908 11.7707 3.63792C10.9335 4.76675 10.3723 6.07599 10.1322 7.46074C9.89212 8.84548 9.97972 10.2672 10.388 11.612L0 22V28H6L16.388 17.612C17.6259 17.9878 18.9303 18.0922 20.2122 17.9183C21.4941 17.7443 22.7235 17.2961 23.8165 16.604C24.9095 15.912 25.8405 14.9925 26.546 13.9081C27.2515 12.8237 27.7149 11.6 27.9047 10.3203C28.0945 9.04065 28.0062 7.7351 27.6458 6.49264C27.2854 5.25019 26.6613 4.10003 25.8162 3.12056C24.9711 2.14109 23.9247 1.35532 22.7485 0.816811C21.5722 0.278299 20.2937 -0.000299774 19 2.42052e-07ZM19 16C18.3115 15.9996 17.6268 15.8979 16.968 15.698L15.821 15.35L11.793 19.378L10.414 18L9 19.414L10.379 20.793L8.793 22.379L7.414 21L6 22.414L7.379 23.793L5.172 26H2V22.828L12.65 12.179L12.302 11.032C11.8746 9.62299 11.9023 8.11508 12.3814 6.72277C12.8604 5.33045 13.7662 4.12463 14.97 3.27683C16.1739 2.42902 17.6144 1.98242 19.0867 2.00053C20.559 2.01864 21.9881 2.50056 23.1707 3.37772C24.3533 4.25488 25.2292 5.48262 25.6738 6.8863C26.1184 8.28998 26.1091 9.79812 25.6471 11.1962C25.1852 12.5942 24.2941 13.8111 23.1008 14.6735C21.9074 15.5359 20.4724 16.0001 19 16Z" fill="white"/>
<path d="M19 11C20.1046 11 21 10.1046 21 9C21 7.89543 20.1046 7 19 7C17.8954 7 17 7.89543 17 9C17 10.1046 17.8954 11 19 11Z" fill="white"/>
</svg>
