<svg width="20" height="20" viewBox="0 0 20 20" fill="none" xmlns="http://www.w3.org/2000/svg">
<path d="M10.375 1C9.94353 1 9.59375 1.34978 9.59375 1.78125V9.59375C9.59375 10.0252 9.94353 10.375 10.375 10.375C10.8065 10.375 11.1562 10.0252 11.1562 9.59375V1.78125C11.1562 1.34978 10.8065 1 10.375 1ZM7.25 2.6899C7.25 2.12771 6.69294 1.73701 6.19031 1.98883C3.11686 3.52863 1 6.71077 1 10.375C1 15.5445 5.20547 19.75 10.375 19.75C15.5445 19.75 19.75 15.5445 19.75 10.375C19.75 6.71026 17.6334 3.52882 14.5602 1.98848C14.0574 1.73646 13.5 2.12729 13.5 2.68972C13.5 3.01304 13.6932 3.30234 13.9797 3.45205C16.4765 4.75642 18.1875 7.3686 18.1875 10.375C18.1875 14.6828 14.6828 18.1875 10.375 18.1875C6.06719 18.1875 2.5625 14.6828 2.5625 10.375C2.5625 7.36854 4.27359 4.75631 6.77041 3.45197C7.05688 3.30231 7.25 3.01311 7.25 2.6899Z" fill="#0178E5" stroke="#0178E5" strokeWidth="0.5"/>
</svg>
