<svg width="59" height="33" viewBox="0 0 59 33" fill="none" xmlns="http://www.w3.org/2000/svg">
<g clip-path="url(#clip0)">
<path d="M33.6149 30.2582C33.8905 30.4419 34.1727 30.619 34.4615 30.7895C36.8241 32.1735 39.528 33 42.4879 33C51.6037 33 58.9934 25.6142 58.9934 16.5033C59 7.38581 51.6102 0 42.4879 0C36.7454 0 32.2039 2.28921 27.9577 4.84079C24.9913 1.90877 20.9158 0.0918306 16.4071 0.0918306C7.35039 0.09839 0 7.43828 0 16.4967C0 25.5552 7.35039 32.9016 16.4137 32.9016C23.1209 32.9016 28.4303 27.477 33.6149 30.2582ZM18.4219 10.2457C16.2365 11.1574 13.9461 11.7478 11.439 11.7478C4.11491 11.7478 10.8615 0.675611 18.4219 10.2457ZM32.5583 11.3608C38.7602 7.58259 47.2263 4.01431 52.9556 7.30054C60.8179 11.8068 59.3741 23.2069 47.876 23.266C40.3287 23.2987 35.61 16.2737 32.5583 11.3608ZM22.6943 27.3393C19.7148 25.8962 20.4826 21.8623 23.6984 18.1956C25.1554 20.4126 26.3564 22.1837 28.3778 25.0698C28.719 25.5617 29.0865 26.0405 29.4737 26.5063C26.737 27.7066 24.276 28.1002 22.6943 27.3393Z" fill="url(#paint0_linear)"/>
<path d="M33.6149 30.2582C33.8905 30.4419 34.1727 30.619 34.4615 30.7895C36.8241 32.1735 39.528 33 42.4879 33C51.6037 33 58.9934 25.6142 58.9934 16.5033C59 7.38581 51.6102 0 42.4879 0C36.7454 0 32.2039 2.28921 27.9577 4.84079C24.9913 1.90877 20.9158 0.0918306 16.4071 0.0918306C7.35039 0.09839 0 7.43828 0 16.4967C0 25.5552 7.35039 32.9016 16.4137 32.9016C23.1209 32.9016 28.4303 27.477 33.6149 30.2582ZM18.4219 10.2457C16.2365 11.1574 13.9461 11.7478 11.439 11.7478C4.11491 11.7478 10.8615 0.675611 18.4219 10.2457ZM32.5583 11.3608C38.7602 7.58259 47.2263 4.01431 52.9556 7.30054C60.8179 11.8068 59.3741 23.2069 47.876 23.266C40.3287 23.2987 35.61 16.2737 32.5583 11.3608ZM22.6943 27.3393C19.7148 25.8962 20.4826 21.8623 23.6984 18.1956C25.1554 20.4126 26.3564 22.1837 28.3778 25.0698C28.719 25.5617 29.0865 26.0405 29.4737 26.5063C26.737 27.7066 24.276 28.1002 22.6943 27.3393Z" fill="url(#paint1_linear)"/>
<path opacity="0.5" d="M28.5483 4.84079C32.7026 2.33512 37.1522 0.0918306 42.7306 0C42.6519 0 42.5731 0 42.4878 0C36.9094 0 32.4598 2.15802 28.3186 4.63089C28.3974 4.69648 28.4695 4.76863 28.5483 4.84079Z" fill="url(#paint2_linear)"/>
<path d="M48.1321 23.2592C48.2371 23.2592 48.3487 23.2658 48.4603 23.2592C59.9584 23.2067 61.4022 11.8066 53.5399 7.30036C51.8729 6.34269 49.9763 5.96881 47.9746 6.01473C49.7663 6.05408 51.4529 6.44108 52.9558 7.30036C60.759 11.7673 59.394 23.0362 48.1321 23.2592Z" fill="url(#paint3_linear)"/>
<path d="M12.0232 11.7478C14.5302 11.7478 16.814 11.1575 19.006 10.2458C16.5975 7.19567 14.2742 6.24457 12.4563 6.36264C14.1758 6.46759 16.2628 7.51708 18.4219 10.2458C16.3349 11.1182 14.1626 11.6954 11.7935 11.7478C11.8656 11.7478 11.9444 11.7478 12.0232 11.7478Z" fill="url(#paint4_linear)"/>
<path d="M30.0513 26.4997C29.6641 26.0405 29.3032 25.5551 28.9553 25.0632C26.9405 22.1771 25.5033 20.0191 24.0463 17.802C23.9347 17.9332 23.8035 18.0578 23.6985 18.189C25.0439 20.229 26.4746 22.3476 28.3778 25.0632C28.7191 25.5551 29.0866 26.034 29.4738 26.4997C27.8134 27.2343 26.258 27.6607 24.9389 27.7197C26.3696 27.7853 28.1481 27.3458 30.0513 26.4997Z" fill="url(#paint5_linear)"/>
<path opacity="0.5" d="M42.7569 32.9934C39.9218 32.9344 37.3229 32.121 35.0456 30.7894C34.7568 30.6189 34.4746 30.4418 34.199 30.2581C33.0439 29.6416 31.8888 29.4251 30.7075 29.471C31.6854 29.5104 32.6501 29.74 33.6149 30.2581C33.8905 30.4418 34.1727 30.6189 34.4615 30.7894C36.8241 32.1735 39.528 32.9999 42.4878 32.9999C42.5797 32.9999 42.6716 32.9999 42.7569 32.9934Z" fill="url(#paint6_linear)"/>
<path opacity="0.4" d="M0.584093 16.4967C0.584093 7.53664 7.77697 0.249221 16.709 0.0983562C16.6106 0.0983562 16.5121 0.0917969 16.4137 0.0917969C7.35039 0.0983562 0 7.43825 0 16.4967C0 25.5551 7.35039 32.9016 16.4137 32.9016C16.5121 32.9016 16.6106 32.9016 16.709 32.895C7.77697 32.7442 0.584093 25.4633 0.584093 16.4967Z" fill="url(#paint7_linear)"/>
<path d="M52.9556 7.30067C48.9719 5.01803 43.6757 6.04784 38.7339 8.15339C47.5281 5.25416 45.4017 14.6406 39.0489 19.6388C41.4575 21.764 44.3582 23.2858 47.8825 23.2661C59.374 23.2071 60.8179 11.8069 52.9556 7.30067Z" fill="url(#paint8_linear)"/>
<path opacity="0.5" d="M5.31585 9.14371C6.74655 7.52355 8.95823 6.36255 11.8524 6.36255H11.8459C13.6638 6.23136 16.0002 7.18247 18.4219 10.2457C21.7098 8.86822 24.7156 6.79547 27.9642 4.84735C24.9978 1.91532 20.9223 0.0983887 16.4136 0.0983887C10.8221 0.0983887 5.88682 2.88611 2.92041 7.14967L5.31585 9.14371Z" fill="url(#paint9_linear)"/>
<path opacity="0.4" d="M47.876 23.2592C40.3353 23.292 35.6166 16.2735 32.5584 11.3606C29.5066 13.2169 26.9996 15.1257 25.6346 16.2932C24.9192 16.9032 24.2695 17.5395 23.7051 18.1954C25.162 20.4125 26.363 22.1835 28.3844 25.0696C31.5739 29.6349 36.5158 33.0064 42.4945 33.0064L47.876 23.2592Z" fill="url(#paint10_linear)"/>
<path d="M20.3384 32.344C25.2736 31.0322 29.487 28.0411 33.615 30.2582C32.5256 29.6219 31.0817 28.3035 29.4738 26.4997C26.7371 27.7066 24.2761 28.1002 22.701 27.3393C19.7215 25.8962 20.4893 21.8622 23.7051 18.1956C17.8051 23.7316 11.1438 34.4955 20.3384 32.344Z" fill="url(#paint11_linear)"/>
<path d="M22.8254 19.0419C23.0419 18.7533 23.2782 18.4713 23.5276 18.1892C18.1329 23.2596 12.0951 32.7116 18.1657 32.6263C12.6989 32.5279 17.7391 24.1976 22.8254 19.0419Z" fill="url(#paint12_linear)"/>
<path d="M11.8527 6.36255C2.6253 7.60226 0.0854766 19.2254 9.52285 19.2254C18.9602 19.2254 27.0457 0 42.488 0C29.4739 0 22.6289 11.7478 11.4392 11.7478C6.458 11.7478 7.98715 6.62492 11.8527 6.36255Z" fill="url(#paint13_linear)"/>
<path d="M9.63422 19.1272C4.75803 19.1272 3.07794 16.0247 3.86548 12.8565C2.84167 16.1558 4.45614 19.5142 9.52922 19.5142C18.9732 19.5142 27.052 0.288818 42.4944 0.288818C39.1802 0.288818 36.2728 1.0497 33.5821 2.18447C23.6196 7.28107 17.0437 19.1272 9.63422 19.1272Z" fill="url(#paint14_linear)"/>
<path d="M50.2515 28.1986C50.3959 29.9959 47.5936 31.6882 43.9906 31.9768C40.3876 32.2654 37.3555 31.0388 37.2111 29.2416C37.0668 27.4443 39.8691 25.752 43.4721 25.4634C47.0751 25.1748 50.1071 26.3948 50.2515 28.1986Z" fill="url(#paint15_linear)"/>
<path d="M44.2533 0.865859C47.9154 1.36437 51.0984 2.49913 53.1263 3.87659C52.3256 3.16163 46.1894 -1.92186 37.6511 0.793707C39.5872 0.537893 41.8579 0.544452 44.2533 0.865859Z" fill="url(#paint16_linear)"/>
<path d="M43.7284 3.09619C40.8145 3.64718 38.0647 4.71635 35.4461 5.99542C32.8341 7.29416 30.373 8.87496 28.0629 10.646C26.9341 11.5708 25.779 12.4629 24.7421 13.4927C24.2171 13.9978 23.6396 14.457 23.1539 15.0014C22.6551 15.5327 22.1498 16.064 21.6379 16.5887C21.1063 17.1004 20.6535 17.671 20.1744 18.2286L18.7305 19.9012C17.8052 21.0491 16.9389 22.2363 15.9807 23.3842C16.6961 22.0855 17.4311 20.7933 18.2252 19.5339L19.5246 17.7104C19.9578 17.1004 20.3909 16.4969 20.8897 15.9394C21.3688 15.3687 21.8545 14.798 22.3467 14.2339C22.8258 13.6567 23.3902 13.1648 23.9152 12.6269C24.9587 11.5446 26.14 10.6132 27.2819 9.64896C29.6774 7.83859 32.2566 6.25123 35.0327 5.10335C37.8022 3.95546 40.7489 3.12243 43.7284 3.09619Z" fill="url(#paint17_linear)"/>
</g>
<defs>
<linearGradient id="paint0_linear" x1="0.0139693" y1="16.5089" x2="58.9948" y2="16.5089" gradientUnits="userSpaceOnUse">
<stop stop-color="#E9E9E9" stop-opacity="0.3"/>
<stop offset="0.4972" stop-color="#DCDCDC"/>
<stop offset="1" stop-color="#E2E2E2" stop-opacity="0.3"/>
</linearGradient>
<linearGradient id="paint1_linear" x1="0.0139693" y1="16.5089" x2="58.9948" y2="16.5089" gradientUnits="userSpaceOnUse">
<stop stop-color="#E9E9E9" stop-opacity="0.3"/>
<stop offset="0.4972" stop-color="#DCDCDC"/>
<stop offset="1" stop-color="#E2E2E2" stop-opacity="0.3"/>
</linearGradient>
<linearGradient id="paint2_linear" x1="28.322" y1="2.42171" x2="42.731" y2="2.42171" gradientUnits="userSpaceOnUse">
<stop stop-color="#E9E9E9" stop-opacity="0.3"/>
<stop offset="0.4972" stop-color="#DCDCDC"/>
<stop offset="1" stop-color="#E2E2E2" stop-opacity="0.3"/>
</linearGradient>
<linearGradient id="paint3_linear" x1="47.9771" y1="14.6412" x2="58.467" y2="14.6412" gradientUnits="userSpaceOnUse">
<stop stop-color="#E9E9E9" stop-opacity="0.3"/>
<stop offset="0.4972" stop-color="#DCDCDC"/>
<stop offset="1" stop-color="#E2E2E2" stop-opacity="0.3"/>
</linearGradient>
<linearGradient id="paint4_linear" x1="11.7952" y1="9.0519" x2="19.0062" y2="9.0519" gradientUnits="userSpaceOnUse">
<stop stop-color="#E9E9E9" stop-opacity="0.3"/>
<stop offset="0.4972" stop-color="#DCDCDC"/>
<stop offset="1" stop-color="#E2E2E2" stop-opacity="0.3"/>
</linearGradient>
<linearGradient id="paint5_linear" x1="23.7" y1="22.7668" x2="30.0515" y2="22.7668" gradientUnits="userSpaceOnUse">
<stop stop-color="#E9E9E9" stop-opacity="0.3"/>
<stop offset="0.4972" stop-color="#DCDCDC"/>
<stop offset="1" stop-color="#E2E2E2" stop-opacity="0.3"/>
</linearGradient>
<linearGradient id="paint6_linear" x1="30.7104" y1="31.2335" x2="42.7572" y2="31.2335" gradientUnits="userSpaceOnUse">
<stop stop-color="#E9E9E9" stop-opacity="0.3"/>
<stop offset="0.4972" stop-color="#DCDCDC"/>
<stop offset="1" stop-color="#E2E2E2" stop-opacity="0.3"/>
</linearGradient>
<linearGradient id="paint7_linear" x1="0.0039566" y1="16.5056" x2="16.7094" y2="16.5056" gradientUnits="userSpaceOnUse">
<stop stop-color="#E9E9E9" stop-opacity="0.3"/>
<stop offset="0.4972" stop-color="#DCDCDC"/>
<stop offset="1" stop-color="#E2E2E2" stop-opacity="0.3"/>
</linearGradient>
<linearGradient id="paint8_linear" x1="38.7384" y1="14.642" x2="57.8833" y2="14.642" gradientUnits="userSpaceOnUse">
<stop stop-color="#E9E9E9" stop-opacity="0.3"/>
<stop offset="0.4972" stop-color="#DCDCDC"/>
<stop offset="1" stop-color="#E2E2E2" stop-opacity="0.3"/>
</linearGradient>
<linearGradient id="paint9_linear" x1="2.92634" y1="5.17478" x2="27.9648" y2="5.17478" gradientUnits="userSpaceOnUse">
<stop stop-color="#E9E9E9" stop-opacity="0.3"/>
<stop offset="0.4972" stop-color="#DCDCDC"/>
<stop offset="1" stop-color="#E2E2E2" stop-opacity="0.3"/>
</linearGradient>
<linearGradient id="paint10_linear" x1="23.7108" y1="22.1894" x2="47.8766" y2="22.1894" gradientUnits="userSpaceOnUse">
<stop stop-color="#E9E9E9" stop-opacity="0.3"/>
<stop offset="0.4972" stop-color="#DCDCDC"/>
<stop offset="1" stop-color="#E2E2E2" stop-opacity="0.3"/>
</linearGradient>
<linearGradient id="paint11_linear" x1="15.8016" y1="25.4139" x2="33.6154" y2="25.4139" gradientUnits="userSpaceOnUse">
<stop stop-color="#E9E9E9" stop-opacity="0.3"/>
<stop offset="0.4972" stop-color="#DCDCDC"/>
<stop offset="1" stop-color="#E2E2E2" stop-opacity="0.3"/>
</linearGradient>
<linearGradient id="paint12_linear" x1="15.6288" y1="25.412" x2="23.5278" y2="25.412" gradientUnits="userSpaceOnUse">
<stop stop-color="#E9E9E9" stop-opacity="0.3"/>
<stop offset="0.4972" stop-color="#DCDCDC"/>
<stop offset="1" stop-color="#E2E2E2" stop-opacity="0.3"/>
</linearGradient>
<linearGradient id="paint13_linear" x1="3.58002" y1="9.61791" x2="42.4889" y2="9.61791" gradientUnits="userSpaceOnUse">
<stop stop-color="#E9E9E9" stop-opacity="0.3"/>
<stop offset="0.4972" stop-color="#DCDCDC"/>
<stop offset="1" stop-color="#E2E2E2" stop-opacity="0.3"/>
</linearGradient>
<linearGradient id="paint14_linear" x1="3.58246" y1="9.90673" x2="42.4953" y2="9.90673" gradientUnits="userSpaceOnUse">
<stop stop-color="#E9E9E9" stop-opacity="0.3"/>
<stop offset="0.4972" stop-color="#DCDCDC"/>
<stop offset="1" stop-color="#E2E2E2" stop-opacity="0.3"/>
</linearGradient>
<linearGradient id="paint15_linear" x1="37.2089" y1="28.7218" x2="50.2572" y2="28.7218" gradientUnits="userSpaceOnUse">
<stop stop-color="#E9E9E9" stop-opacity="0.3"/>
<stop offset="0.4972" stop-color="#DCDCDC"/>
<stop offset="1" stop-color="#E2E2E2" stop-opacity="0.3"/>
</linearGradient>
<linearGradient id="paint16_linear" x1="37.6548" y1="1.94032" x2="53.1267" y2="1.94032" gradientUnits="userSpaceOnUse">
<stop stop-color="#E9E9E9" stop-opacity="0.3"/>
<stop offset="0.4972" stop-color="#DCDCDC"/>
<stop offset="1" stop-color="#E2E2E2" stop-opacity="0.3"/>
</linearGradient>
<linearGradient id="paint17_linear" x1="15.9873" y1="13.2457" x2="43.7291" y2="13.2457" gradientUnits="userSpaceOnUse">
<stop stop-color="#E9E9E9" stop-opacity="0.3"/>
<stop offset="0.4972" stop-color="#DCDCDC"/>
<stop offset="1" stop-color="#E2E2E2" stop-opacity="0.3"/>
</linearGradient>
<clipPath id="clip0">
<rect width="59" height="33" fill="white"/>
</clipPath>
</defs>
</svg>
