<svg width="36" height="36" viewBox="0 0 36 36" fill="none" xmlns="http://www.w3.org/2000/svg">
<path d="M18.5738 6.76141C12.3768 6.76141 7.33514 11.803 7.33514 18.0001C7.33514 24.1972 12.3768 29.2388 18.5738 29.2388C24.7707 29.2388 29.8124 24.1972 29.8124 18.0001C29.8124 11.803 24.7707 6.76141 18.5738 6.76141ZM18.5738 27.8325C13.1522 27.8325 8.74139 23.4217 8.74139 18.0001C8.74139 12.5784 13.1522 8.16766 18.5738 8.16766C23.9954 8.16766 28.4062 12.5785 28.4062 18.0001C28.4062 23.4217 23.9954 27.8325 18.5738 27.8325Z" fill="#646C7C"/>
<path d="M19.9969 17.2969C19.8418 16.9856 19.5882 16.7321 19.2769 16.5769V14.9063C19.2769 14.518 18.9622 14.2031 18.5738 14.2031C18.1855 14.2031 17.8707 14.518 17.8707 14.9063V16.5666C17.3336 16.8249 16.9629 17.3742 16.9629 18.0101C16.9629 18.8942 17.6797 19.6109 18.5638 19.6109C19.1996 19.6109 19.7489 19.2402 20.0072 18.7031H25.0312C25.4196 18.7031 25.7344 18.3882 25.7344 17.9999C25.7344 17.6117 25.4196 17.2968 25.0312 17.2968H19.9969V17.2969Z" fill="#646C7C"/>
<path d="M18.5737 24.1995C18.3887 24.1995 18.2073 24.2747 18.0766 24.4055C17.9458 24.5363 17.8705 24.7177 17.8705 24.9026C17.8705 25.0875 17.9458 25.2689 18.0766 25.3997C18.2073 25.5304 18.3887 25.6057 18.5737 25.6057C18.7586 25.6057 18.94 25.5305 19.0708 25.3997C19.2016 25.2689 19.2768 25.0875 19.2768 24.9026C19.2768 24.7177 19.2016 24.5363 19.0708 24.4055C18.94 24.2748 18.7586 24.1995 18.5737 24.1995Z" fill="#646C7C"/>
<path d="M18.5737 11.8007C18.7586 11.8007 18.94 11.7254 19.0708 11.5946C19.2016 11.4639 19.2768 11.2825 19.2768 11.0975C19.2768 10.9126 19.2016 10.7312 19.0708 10.6004C18.94 10.4696 18.7586 10.3944 18.5737 10.3944C18.3887 10.3944 18.2073 10.4696 18.0766 10.6004C17.9458 10.7313 17.8705 10.9126 17.8705 11.0975C17.8705 11.2832 17.9458 11.4639 18.0766 11.5946C18.2073 11.7254 18.3887 11.8007 18.5737 11.8007Z" fill="#646C7C"/>
<path d="M11.6711 17.2969C11.4862 17.2969 11.3048 17.372 11.174 17.5029C11.0433 17.6337 10.968 17.8151 10.968 18C10.968 18.1849 11.0433 18.3663 11.174 18.497C11.3048 18.6278 11.4862 18.7031 11.6711 18.7031C11.8561 18.7031 12.0375 18.6279 12.1683 18.497C12.299 18.3663 12.3743 18.1849 12.3743 18C12.3743 17.8151 12.299 17.6337 12.1683 17.5029C12.0375 17.3721 11.8561 17.2969 11.6711 17.2969Z" fill="#646C7C"/>
<path d="M35.6283 4.95427C35.3994 4.83185 35.1217 4.84563 34.9061 4.98985C32.4211 6.65119 30.9375 9.42762 30.9375 12.4168V15.8937C30.9375 16.4995 31.2799 17.0266 31.7812 17.2923V29.0195C31.7812 30.1826 32.7275 31.1289 33.8906 31.1289C35.0537 31.1289 36 30.1826 36 29.0195V5.57442C36 5.3149 35.8571 5.07654 35.6283 4.95427ZM32.3438 12.4168C32.3438 10.3741 33.166 8.44929 34.5938 7.0481V16.0695H32.5195C32.4226 16.0695 32.3438 15.9907 32.3438 15.8938V12.4168ZM34.5938 29.0195C34.5938 29.4072 34.2783 29.7226 33.8906 29.7226C33.5029 29.7226 33.1875 29.4072 33.1875 29.0195V17.4757H34.5938V29.0195Z" fill="#646C7C"/>
<path d="M6.32812 4.87238C5.93979 4.87238 5.625 5.18723 5.625 5.5755V8.68099H4.21875V5.5755C4.21875 5.18723 3.90396 4.87238 3.51562 4.87238C3.12729 4.87238 2.8125 5.18723 2.8125 5.5755V8.68099H1.40625V5.5755C1.40625 5.18723 1.09146 4.87238 0.703125 4.87238C0.314789 4.87238 0 5.18723 0 5.5755V11.3527C0 12.4618 0.529875 13.5049 1.40625 14.1642V29.0206C1.40625 30.1837 2.35252 31.1299 3.51562 31.1299C4.67873 31.1299 5.625 30.1837 5.625 29.0206V14.1642C6.50138 13.5049 7.03125 12.4618 7.03125 11.3527V5.5755C7.03125 5.18716 6.71646 4.87238 6.32812 4.87238ZM5.625 11.3527C5.625 12.1027 5.22063 12.8026 4.56968 13.1794C4.35248 13.3051 4.21875 13.5371 4.21875 13.7879V29.0206C4.21875 29.4083 3.90333 29.7237 3.51562 29.7237C3.12792 29.7237 2.8125 29.4083 2.8125 29.0206V13.7879C2.8125 13.5371 2.67877 13.3051 2.46157 13.1794C1.81062 12.8026 1.40625 12.1027 1.40625 11.3527V10.0872H5.625V11.3527Z" fill="#646C7C"/>
</svg>
