<svg fill="none" viewBox="0 0 22 24" xmlns="http://www.w3.org/2000/svg">
<path d="m9.5715 23h2.8572" stroke="#4A4B57" strokeLinecap="round" strokeWidth="2"/>
<path d="m3.8572 7.8967h1l-1e-5 -0.00319-0.99999 0.00319zm14.286 10.978v1-1zm0.9813-5.3335 0.332-0.9433-0.332 0.9433zm-0.9813-5.6665h1-1zm-7.1429-5.875c3.429 0 6.1428 2.666 6.1429 5.875l2-1e-5c-1e-4 -4.3849-3.6821-7.875-8.1429-7.875v2zm-6.1429 5.875c0-3.209 2.7139-5.875 6.1429-5.875v-2c-4.4608 0-8.1429 3.4901-8.1429 7.875h2zm3e-5 0.0185c-2e-5 -0.00618-3e-5 -0.01234-3e-5 -0.0185h-2c0 0.00831 2e-5 0.01661 4e-5 0.02489l2-0.00639zm1e-5 5.4815v-5.4783h-2v5.4783h2zm-2.8572 2.75c0-0.9308 0.7951-1.75 1.8571-1.75v-2c-2.0939 0-3.8571 1.6433-3.8571 3.75h2zm1.8571 1.75c-1.062 0-1.8571-0.8192-1.8571-1.75h-2c0 2.1067 1.7633 3.75 3.8571 3.75v-2zm4e-5 0h-1e-5 -1e-5 -1e-5 -1e-5v2h1e-5 1e-5 1e-5 1e-5v-2zm14.286 0h-14.286v2h14.286v-2zm0 2h1e-4v-2h-1e-4v2zm1e-4 0c2.0938-1e-4 3.857-1.6433 3.857-3.75h-2c0 0.9308-0.795 1.75-1.857 1.75v2zm3.857-3.75c0-1.644-1.0807-3.0118-2.5437-3.5268l-0.6641 1.8866c0.7261 0.2556 1.2078 0.9103 1.2078 1.6402h2zm-4.857-8.25v4.5h2v-4.5h-2zm2 0c0-0.5523-0.4477-1-1-1v2c-0.5523 0-1-0.44771-1-0.99998h2zm0.3133 4.7232c-0.125-0.0439-0.2219-0.112-0.2757-0.1716-0.0484-0.0537-0.0376-0.0695-0.0376-0.0516h-2c0 1.1529 0.9247 1.8547 1.6492 2.1098l0.6641-1.8866zm-16.599 0.7768c0-0.5523 0.4477-1 0.99996-1v2c0.55231 0 1-0.4477 1-1h-2zm14.286-5.5c0 0.56694 0.4624 1 1 1v-2c0.5375 0 1 0.43305 1 0.99998l-2 1e-5z" fill="#4A4B57"/>
</svg>
