<svg width="26" height="26" viewBox="0 0 26 26" fill="none" xmlns="http://www.w3.org/2000/svg">
<path d="M20.5 10.1875H18.625C18.6243 9.44181 18.3277 8.72687 17.8004 8.19958C17.2731 7.6723 16.5582 7.37574 15.8125 7.375V5.5C17.0552 5.50149 18.2467 5.99583 19.1254 6.87458C20.0042 7.75334 20.4985 8.94475 20.5 10.1875Z" fill="white"/>
<path d="M24.25 10.1875H22.375C22.373 8.44763 21.681 6.77958 20.4507 5.5493C19.2204 4.31903 17.5524 3.62699 15.8125 3.625V1.75C18.0495 1.75248 20.1942 2.64223 21.776 4.22403C23.3578 5.80583 24.2475 7.9505 24.25 10.1875Z" fill="white"/>
<path d="M22.375 25.1875H22.2156C3.79372 24.1281 1.1781 8.58438 0.812472 3.84063C0.755328 3.09695 0.995925 2.36103 1.48134 1.79474C1.96676 1.22845 2.65724 0.878167 3.40091 0.820938C3.47528 0.815313 3.54997 0.812501 3.62497 0.812501H8.5656C8.94112 0.812137 9.3081 0.924541 9.619 1.13515C9.9299 1.34576 10.1704 1.64488 10.3093 1.99375L11.7343 5.5C11.8715 5.84083 11.9056 6.21445 11.8323 6.57446C11.7589 6.93447 11.5814 7.26501 11.3218 7.525L9.32497 9.54063C9.63562 11.3137 10.4841 12.9484 11.7553 14.223C13.0265 15.4975 14.6589 16.3503 16.4312 16.6656L18.4656 14.65C18.7295 14.3933 19.0631 14.2199 19.4249 14.1516C19.7867 14.0832 20.1606 14.1229 20.5 14.2656L24.0343 15.6813C24.378 15.8246 24.6711 16.067 24.8765 16.3775C25.0818 16.6881 25.1901 17.0527 25.1875 17.425V22.375C25.1875 23.1209 24.8912 23.8363 24.3637 24.3637C23.8363 24.8912 23.1209 25.1875 22.375 25.1875ZM3.62497 2.6875C3.50186 2.68713 3.37988 2.71101 3.26599 2.75779C3.15211 2.80456 3.04855 2.8733 2.96123 2.9601C2.87392 3.04689 2.80455 3.15003 2.7571 3.26364C2.70964 3.37724 2.68503 3.49907 2.68466 3.62219C2.68466 3.64844 2.6856 3.67438 2.68747 3.7C3.11872 9.25 5.88435 22.375 22.3187 23.3125C22.5669 23.3274 22.8107 23.2431 22.9967 23.0782C23.1827 22.9133 23.2956 22.6812 23.3106 22.4331L23.3125 22.375V17.425L19.7781 16.0094L17.0875 18.6812L16.6375 18.625C8.48122 17.6031 7.37497 9.44688 7.37497 9.3625L7.31872 8.9125L9.98122 6.22188L8.57497 2.6875H3.62497Z" fill="white"/>
</svg>
