<svg width="16" height="16" viewBox="0 0 16 16" fill="none" xmlns="http://www.w3.org/2000/svg">
<path d="M8 1.14286C11.7714 1.14286 14.8571 4.22857 14.8571 8C14.8571 11.7714 11.7714 14.8571 8 14.8571C4.22857 14.8571 1.14286 11.7714 1.14286 8C1.14286 4.22857 4.22857 1.14286 8 1.14286ZM8 0C3.6 0 0 3.6 0 8C0 12.4 3.6 16 8 16C12.4 16 16 12.4 16 8C16 3.6 12.4 0 8 0Z" fill="#DEDEDE"/>
<path d="M12.5713 7.42859H8.57132V3.42859H7.42847V7.42859H3.42847V8.57145H7.42847V12.5714H8.57132V8.57145H12.5713V7.42859Z" fill="#DEDEDE"/>
</svg>
