<svg width="21" height="20" viewBox="0 0 21 20" fill="none" xmlns="http://www.w3.org/2000/svg">
<path d="M14.325 0.625C14.6328 0.625 14.9376 0.685623 15.2219 0.803407C15.5063 0.921192 15.7646 1.09383 15.9823 1.31147C16.1999 1.52911 16.3726 1.78748 16.4903 2.07184C16.6081 2.35619 16.6688 2.66096 16.6688 2.96875V3.75312H17.45C18.3479 3.75368 19.2089 4.11046 19.844 4.74517C20.4791 5.37988 20.8364 6.24065 20.8375 7.13854L20.8406 13.3854C20.8408 13.6931 20.7803 13.9977 20.6627 14.282C20.5451 14.5663 20.3726 14.8246 20.1552 15.0423C19.9378 15.2599 19.6796 15.4326 19.3954 15.5504C19.1112 15.6683 18.8066 15.729 18.499 15.7292H16.6667V17.0312C16.6667 17.6529 16.4197 18.249 15.9802 18.6885C15.5407 19.1281 14.9445 19.375 14.3229 19.375H6.51042C5.88882 19.375 5.29267 19.1281 4.85314 18.6885C4.4136 18.249 4.16667 17.6529 4.16667 17.0312V15.7292H2.34375C1.72215 15.7292 1.12601 15.4822 0.686468 15.0427C0.24693 14.6032 0 14.007 0 13.3854V7.13958C0 6.24171 0.356677 5.38062 0.991566 4.74573C1.62645 4.11084 2.48755 3.75417 3.38542 3.75417L4.16563 3.75312L4.16667 2.96875C4.16667 2.34715 4.4136 1.75101 4.85314 1.31147C5.29267 0.87193 5.88882 0.625 6.51042 0.625H14.325ZM14.3229 11.5625H6.51042C6.30322 11.5625 6.1045 11.6448 5.95799 11.7913C5.81148 11.9378 5.72917 12.1365 5.72917 12.3438V17.0312C5.72917 17.4625 6.07917 17.8125 6.51042 17.8125H14.3229C14.5301 17.8125 14.7288 17.7302 14.8753 17.5837C15.0219 17.4372 15.1042 17.2384 15.1042 17.0312V12.3438C15.1042 12.1365 15.0219 11.9378 14.8753 11.7913C14.7288 11.6448 14.5301 11.5625 14.3229 11.5625ZM17.45 5.31667H3.38542C2.90195 5.31667 2.43828 5.50872 2.09642 5.85059C1.75456 6.19245 1.5625 6.65612 1.5625 7.13958V13.3854C1.5625 13.8167 1.9125 14.1667 2.34375 14.1667H4.16667V12.3438C4.16667 11.7221 4.4136 11.126 4.85314 10.6865C5.29267 10.2469 5.88882 10 6.51042 10H14.3229C14.9445 10 15.5407 10.2469 15.9802 10.6865C16.4197 11.126 16.6667 11.7221 16.6667 12.3438V14.1667H18.524C18.7263 14.1599 18.9182 14.0747 19.0589 13.9291C19.1996 13.7836 19.2782 13.5889 19.2781 13.3865L19.275 7.13958C19.2739 6.65609 19.0812 6.19275 18.7391 5.85107C18.3971 5.50938 17.9335 5.31722 17.45 5.31667ZM14.325 2.1875H6.51042C6.30322 2.1875 6.1045 2.26981 5.95799 2.41632C5.81148 2.56284 5.72917 2.76155 5.72917 2.96875L5.72813 3.75312H15.1063V2.96875C15.1063 2.76155 15.0239 2.56284 14.8774 2.41632C14.7309 2.26981 14.5322 2.1875 14.325 2.1875Z" fill="#0178E5"/>
</svg>
