<svg width="29" height="29" viewBox="0 0 29 29" fill="none" xmlns="http://www.w3.org/2000/svg">
<path d="M0 27.6555C0 28.3936 0.593182 28.9868 1.33136 28.9868H18.4545C19.1927 28.9868 19.7859 28.3936 19.7859 27.6555V26.3636H0V27.6555ZM9.88636 10.5323C5.96048 10.5323 2.0346 12.2035 0.584992 15.5327C-0.076453 17.0518 1.34315 18.4545 3 18.4545H16.7727C18.4296 18.4545 19.8492 17.0518 19.1877 15.5327C17.7381 12.2035 13.8122 10.5323 9.88636 10.5323ZM3.45364 15.8182C4.91682 13.775 8.02773 13.1686 9.88636 13.1686C11.745 13.1686 14.8559 13.775 16.3191 15.8182H3.45364ZM0 22.4091C0 21.6811 0.59017 21.0909 1.31818 21.0909H18.4545C19.1826 21.0909 19.7727 21.6811 19.7727 22.4091C19.7727 23.1371 19.1826 23.7273 18.4545 23.7273H1.31818C0.590171 23.7273 0 23.1371 0 22.4091ZM22.4091 5.27273V0H19.7727V5.27273H13.1818L13.485 7.90909H26.0868L24.2414 26.3636H22.4091V29H24.6764C25.7836 29 26.6932 28.1432 26.825 27.0623L28.6708 8.5707C28.8471 6.80483 27.4603 5.27273 25.6856 5.27273H22.4091Z" fill="#F5697A"/>
</svg>
