<svg width="20" height="20" viewBox="0 0 20 20" fill="none" xmlns="http://www.w3.org/2000/svg">
<path d="M7.24834 2.34886C7.45949 1.55469 8.19541 1 9.0379 1H10.9619C11.8044 1 12.5403 1.55469 12.7514 2.34886L12.9216 2.98902C13.0002 3.28467 13.2117 3.52456 13.4843 3.66328C13.6864 3.7661 13.8831 3.87722 14.0737 3.99615C14.3272 4.15432 14.6334 4.21308 14.9219 4.13545L15.6858 3.92998C16.5118 3.70776 17.3997 4.0516 17.8364 4.76288L18.7419 6.23756C19.1786 6.94884 19.0514 7.84374 18.4337 8.40531L17.8403 8.94473C17.6048 9.15885 17.4901 9.47222 17.4998 9.79038C17.5019 9.86001 17.5029 9.92989 17.5029 10C17.5029 10.0701 17.5019 10.14 17.4998 10.2096C17.4901 10.5278 17.6048 10.8412 17.8403 11.0553L18.4337 11.5947C19.0514 12.1563 19.1786 13.0512 18.7419 13.7624L17.8364 15.2371C17.3997 15.9484 16.5118 16.2922 15.6858 16.07L14.9219 15.8645C14.6334 15.7869 14.3272 15.8457 14.0737 16.0038C13.8831 16.1228 13.6864 16.2339 13.4843 16.3367C13.2117 16.4754 13.0002 16.7153 12.9216 17.011L12.7514 17.6511C12.5403 18.4453 11.8044 19 10.9619 19H9.0379C8.19541 19 7.45949 18.4453 7.24834 17.6511L7.123 17.1797C7.04011 16.868 6.81009 16.6192 6.51643 16.4857C6.23417 16.3574 5.96156 16.2132 5.6999 16.0545C5.44854 15.902 5.14733 15.8464 4.86342 15.9227L4.31479 16.0702C3.48863 16.2924 2.60068 15.9485 2.16385 15.2373L1.25818 13.7627C0.821347 13.0515 0.948538 12.1567 1.56628 11.5952L1.86455 11.3241C2.10992 11.1011 2.22364 10.7712 2.20241 10.4403C2.19306 10.2947 2.18832 10.1479 2.18832 10C2.18832 9.85214 2.19306 9.70532 2.20241 9.55966C2.22364 9.22877 2.10992 8.89889 1.86455 8.67586L1.56628 8.40476C0.948538 7.84329 0.821347 6.9485 1.25818 6.23726L2.16385 4.7627C2.60068 4.05146 3.48863 3.70761 4.31479 3.92976L4.86342 4.07729C5.14733 4.15364 5.44854 4.09798 5.6999 3.94549C5.96156 3.78676 6.23417 3.64262 6.51643 3.51429C6.81009 3.38077 7.04011 3.13204 7.123 2.82028L7.24834 2.34886Z" stroke="#646C7C" strokeWidth="2"/>
<path d="M12 10C12 11.1046 11.1046 12 10 12C8.89543 12 8 11.1046 8 10C8 8.89543 8.89543 8 10 8C11.1046 8 12 8.89543 12 10Z" stroke="#646C7C" strokeWidth="2"/>
</svg>
