<svg width="26" height="25" viewBox="0 0 26 25" fill="none" xmlns="http://www.w3.org/2000/svg">
<path d="M23.4217 19.9353C23.2955 19.8678 23.1631 19.7483 23.0307 19.5998H25.5185V17.6471C25.5185 12.1139 22.0244 7.96554 16.3704 6.73685V4.17486H13.8941V1.9609H15.5191V0H10.4809V1.9609H12.1059V4.17486H9.62963V6.73685C3.97559 7.96554 0.481481 12.1144 0.481481 17.6471V19.5998H2.96978C2.83737 19.7488 2.70496 19.8683 2.57833 19.9353C1.67315 20.4193 0 20.9027 0 22.6858V25H26V22.6858C26 20.9037 24.3269 20.4198 23.4217 19.9353ZM1.44444 17.6471C1.44444 12.4798 4.79989 8.63171 10.2011 7.60402L10.5926 7.52979V5.13892H15.4074V7.52979L15.7989 7.60402C21.2001 8.63171 24.5556 12.4798 24.5556 17.6471V18.6358H1.44444V17.6471ZM23.401 24.0196H2.6C2.12141 24.0196 1.73381 23.5809 1.73381 23.0396C1.73381 22.4978 2.12141 22.0591 2.6 22.0591H23.4005C23.8791 22.0591 24.2667 22.4978 24.2667 23.0396C24.2667 23.5809 23.8796 24.0196 23.401 24.0196Z" fill="#FCBB36"/>
</svg>
