<svg width="30" height="30" viewBox="0 0 30 30" fill="none" xmlns="http://www.w3.org/2000/svg">
<path d="M6.81818 16.3636H1.36364C1.00198 16.3636 0.655131 16.5073 0.3994 16.763C0.143668 17.0188 0 17.3656 0 17.7273V28.6364C0 28.998 0.143668 29.3449 0.3994 29.6006C0.655131 29.8563 1.00198 30 1.36364 30H6.81818C7.17984 30 7.52669 29.8563 7.78242 29.6006C8.03815 29.3449 8.18182 28.998 8.18182 28.6364V17.7273C8.18182 17.3656 8.03815 17.0188 7.78242 16.763C7.52669 16.5073 7.17984 16.3636 6.81818 16.3636ZM5.45455 27.2727H2.72727V19.0909H5.45455V27.2727ZM28.6364 10.9091H23.1818C22.8202 10.9091 22.4733 11.0528 22.2176 11.3085C21.9618 11.5642 21.8182 11.9111 21.8182 12.2727V28.6364C21.8182 28.998 21.9618 29.3449 22.2176 29.6006C22.4733 29.8563 22.8202 30 23.1818 30H28.6364C28.998 30 29.3449 29.8563 29.6006 29.6006C29.8563 29.3449 30 28.998 30 28.6364V12.2727C30 11.9111 29.8563 11.5642 29.6006 11.3085C29.3449 11.0528 28.998 10.9091 28.6364 10.9091ZM27.2727 27.2727H24.5455V13.6364H27.2727V27.2727ZM17.7273 0H12.2727C11.9111 0 11.5642 0.143668 11.3085 0.3994C11.0528 0.655131 10.9091 1.00198 10.9091 1.36364V28.6364C10.9091 28.998 11.0528 29.3449 11.3085 29.6006C11.5642 29.8563 11.9111 30 12.2727 30H17.7273C18.0889 30 18.4358 29.8563 18.6915 29.6006C18.9472 29.3449 19.0909 28.998 19.0909 28.6364V1.36364C19.0909 1.00198 18.9472 0.655131 18.6915 0.3994C18.4358 0.143668 18.0889 0 17.7273 0ZM16.3636 27.2727H13.6364V2.72727H16.3636V27.2727Z" fill="#6EC9A8"/>
</svg>
