<svg width="25" height="27" viewBox="0 0 25 27" fill="none" xmlns="http://www.w3.org/2000/svg">
<path d="M24.0192 21.5514C23.3921 20.069 22.482 18.7225 21.3397 17.5868C20.2009 16.4479 18.8518 15.5399 17.367 14.9128C17.3537 14.9062 17.3404 14.9029 17.3271 14.8962C19.3982 13.4033 20.7446 10.9714 20.7446 8.22776C20.7446 3.68259 17.0545 0 12.5 0C7.94551 0 4.25537 3.68259 4.25537 8.22776C4.25537 10.9714 5.60177 13.4033 7.6729 14.8995C7.65961 14.9062 7.64631 14.9095 7.63301 14.9161C6.14366 15.5432 4.80723 16.4422 3.6603 17.5902C2.51905 18.7267 1.60913 20.073 0.980795 21.5547C0.363519 23.0054 0.030608 24.5607 8.31311e-05 26.1364C-0.00080418 26.1718 0.00541927 26.207 0.018387 26.24C0.0313547 26.273 0.0508041 26.303 0.0755893 26.3284C0.100374 26.3537 0.129994 26.3739 0.162702 26.3876C0.195411 26.4014 0.230546 26.4085 0.266039 26.4084H2.26071C2.40698 26.4084 2.52334 26.2923 2.52666 26.1497C2.59315 23.5885 3.62373 21.1898 5.44553 19.3717C7.33049 17.4906 9.83379 16.4555 12.5 16.4555C15.1662 16.4555 17.6695 17.4906 19.5545 19.3717C21.3763 21.1898 22.4068 23.5885 22.4733 26.1497C22.4767 26.2957 22.593 26.4084 22.7393 26.4084H24.734C24.7695 26.4085 24.8046 26.4014 24.8373 26.3876C24.87 26.3739 24.8996 26.3537 24.9244 26.3284C24.9492 26.303 24.9686 26.273 24.9816 26.24C24.9946 26.207 25.0008 26.1718 24.9999 26.1364C24.9667 24.5506 24.6376 23.0079 24.0192 21.5514ZM12.5 13.9341C10.9741 13.9341 9.53792 13.3402 8.45747 12.262C7.37703 11.1838 6.78195 9.75056 6.78195 8.22776C6.78195 6.70496 7.37703 5.27174 8.45747 4.1935C9.53792 3.11527 10.9741 2.52141 12.5 2.52141C14.0259 2.52141 15.4621 3.11527 16.5425 4.1935C17.623 5.27174 18.218 6.70496 18.218 8.22776C18.218 9.75056 17.623 11.1838 16.5425 12.262C15.4621 13.3402 14.0259 13.9341 12.5 13.9341Z" fill="white"/>
</svg>
