<svg width="16" height="16" viewBox="0 0 16 16" fill="none" xmlns="http://www.w3.org/2000/svg">
<path d="M8.00065 1.16602C8.55408 1.16598 9.08654 1.37772 9.48881 1.7578C9.89107 2.13788 10.1327 2.65748 10.164 3.21002L10.1673 3.33268H13.6673C13.794 3.33272 13.9159 3.38085 14.0085 3.46733C14.1011 3.55382 14.1574 3.67221 14.166 3.7986C14.1746 3.92499 14.135 4.04994 14.055 4.14822C13.9751 4.24649 13.8608 4.31075 13.7353 4.32802L13.6673 4.33268H13.1367L12.2833 13.0127C12.2406 13.4454 12.0454 13.8489 11.7326 14.151C11.4199 14.4531 11.0099 14.6342 10.576 14.662L10.4587 14.666H5.54265C5.10763 14.666 4.68678 14.5113 4.35532 14.2295C4.02386 13.9478 3.8034 13.5574 3.73332 13.128L3.71798 13.012L2.86398 4.33268H2.33398C2.21316 4.33268 2.09642 4.28892 2.00536 4.2095C1.9143 4.13009 1.85508 4.02039 1.83865 3.90068L1.83398 3.83268C1.83399 3.71186 1.87775 3.59512 1.95716 3.50406C2.03658 3.413 2.14628 3.35378 2.26598 3.33735L2.33398 3.33268H5.83398C5.83398 2.75805 6.06226 2.20695 6.46859 1.80062C6.87492 1.39429 7.42602 1.16602 8.00065 1.16602ZM12.132 4.33268H3.86865L4.71332 12.914C4.73202 13.1055 4.8164 13.2846 4.95213 13.4209C5.08787 13.5573 5.26659 13.6425 5.45798 13.662L5.54265 13.666H10.4587C10.8587 13.666 11.198 13.3827 11.2753 12.998L11.2887 12.914L12.1313 4.33268H12.132ZM9.16732 6.16602C9.28814 6.16602 9.40488 6.20978 9.49594 6.28919C9.587 6.36861 9.64622 6.47831 9.66265 6.59802L9.66732 6.66602V11.3327C9.66728 11.4594 9.61915 11.5813 9.53267 11.6739C9.44618 11.7664 9.32779 11.8227 9.2014 11.8314C9.07501 11.84 8.95006 11.8003 8.85179 11.7204C8.75351 11.6404 8.68925 11.5262 8.67198 11.4007L8.66732 11.3327V6.66602C8.66732 6.53341 8.72 6.40623 8.81376 6.31246C8.90753 6.21869 9.03471 6.16602 9.16732 6.16602ZM6.83398 6.16602C6.95481 6.16602 7.07155 6.20978 7.1626 6.28919C7.25366 6.36861 7.31289 6.47831 7.32932 6.59802L7.33398 6.66602V11.3327C7.33395 11.4594 7.28582 11.5813 7.19934 11.6739C7.11285 11.7664 6.99445 11.8227 6.86806 11.8314C6.74168 11.84 6.61672 11.8003 6.51845 11.7204C6.42018 11.6404 6.35592 11.5262 6.33865 11.4007L6.33398 11.3327V6.66602C6.33398 6.53341 6.38666 6.40623 6.48043 6.31246C6.5742 6.21869 6.70138 6.16602 6.83398 6.16602ZM8.00065 2.16602C7.70786 2.16603 7.42577 2.27613 7.21039 2.47447C6.99501 2.67281 6.86208 2.94488 6.83798 3.23668L6.83398 3.33268H9.16732C9.16732 3.02326 9.0444 2.72652 8.82561 2.50772C8.60682 2.28893 8.31007 2.16602 8.00065 2.16602Z" fill="#646C7C"/>
</svg>
