<svg width="13" height="13" viewBox="0 0 13 13" fill="none" xmlns="http://www.w3.org/2000/svg">
<path d="M1.26829 13C0.919512 13 0.620829 12.8759 0.372244 12.6276C0.124081 12.3797 0 12.0816 0 11.7333V2.86602C0 2.51766 0.124081 2.21934 0.372244 1.97106C0.620829 1.7232 0.919512 1.59927 1.26829 1.59927H6.92805L5.65976 2.86602H1.26829V11.7333H10.1463V7.3313L11.4146 6.06456V11.7333C11.4146 12.0816 11.2906 12.3797 11.0424 12.6276C10.7938 12.8759 10.4951 13 10.1463 13H1.26829ZM8.35488 1.96346L9.25854 2.85018L5.07317 7.03045V7.93301H5.96098L10.1622 3.73691L11.0659 4.62363L6.5 9.19976H3.80488V6.50792L8.35488 1.96346ZM11.0659 4.62363L8.35488 1.96346L9.94024 0.380024C10.1939 0.126675 10.4979 0 10.8521 0C11.206 0 11.5045 0.126675 11.7476 0.380024L12.6354 1.28258C12.8785 1.52538 13 1.82095 13 2.16931C13 2.51766 12.8785 2.81324 12.6354 3.05603L11.0659 4.62363Z" fill="#646C7C"/>
</svg>
