<svg width="219" height="167" viewBox="0 0 219 167" fill="none" xmlns="http://www.w3.org/2000/svg">
<path d="M26.6062 141V121.38H30.1762L36.2962 132.42L38.3062 136.59H38.4262C38.3462 135.59 38.2462 134.5 38.1262 133.32C38.0262 132.14 37.9762 131 37.9762 129.9V121.38H41.3062V141H37.7362L31.6162 129.96L29.6062 125.79H29.4862C29.5662 126.83 29.6562 127.92 29.7562 129.06C29.8762 130.2 29.9362 131.32 29.9362 132.42V141H26.6062ZM52.0237 141.36C50.8037 141.36 49.6637 141.06 48.6037 140.46C47.5437 139.84 46.6837 138.96 46.0237 137.82C45.3637 136.66 45.0337 135.27 45.0337 133.65C45.0337 132.01 45.3637 130.62 46.0237 129.48C46.6837 128.32 47.5437 127.44 48.6037 126.84C49.6637 126.22 50.8037 125.91 52.0237 125.91C53.2637 125.91 54.4137 126.22 55.4737 126.84C56.5337 127.44 57.3937 128.32 58.0537 129.48C58.7137 130.62 59.0437 132.01 59.0437 133.65C59.0437 135.27 58.7137 136.66 58.0537 137.82C57.3937 138.96 56.5337 139.84 55.4737 140.46C54.4137 141.06 53.2637 141.36 52.0237 141.36ZM52.0237 138.54C53.1037 138.54 53.9537 138.09 54.5737 137.19C55.1937 136.29 55.5037 135.11 55.5037 133.65C55.5037 132.17 55.1937 130.98 54.5737 130.08C53.9537 129.18 53.1037 128.73 52.0237 128.73C50.9437 128.73 50.0937 129.18 49.4737 130.08C48.8737 130.98 48.5737 132.17 48.5737 133.65C48.5737 135.11 48.8737 136.29 49.4737 137.19C50.0937 138.09 50.9437 138.54 52.0237 138.54ZM73.6244 141.36C71.7844 141.36 70.3144 140.68 69.2144 139.32C68.1144 137.96 67.5644 136.07 67.5644 133.65C67.5644 132.05 67.8544 130.67 68.4344 129.51C69.0344 128.35 69.8144 127.46 70.7744 126.84C71.7344 126.22 72.7444 125.91 73.8044 125.91C74.6444 125.91 75.3544 126.06 75.9344 126.36C76.5344 126.64 77.1144 127.03 77.6744 127.53L77.5544 125.16V119.82H81.0044V141H78.1544L77.9144 139.41H77.7944C77.2544 139.95 76.6244 140.41 75.9044 140.79C75.1844 141.17 74.4244 141.36 73.6244 141.36ZM74.4644 138.51C75.5644 138.51 76.5944 137.96 77.5544 136.86V129.99C77.0544 129.53 76.5544 129.21 76.0544 129.03C75.5544 128.85 75.0544 128.76 74.5544 128.76C73.6144 128.76 72.8044 129.19 72.1244 130.05C71.4644 130.89 71.1344 132.08 71.1344 133.62C71.1344 135.2 71.4244 136.41 72.0044 137.25C72.5844 138.09 73.4044 138.51 74.4644 138.51ZM91.698 141.36C90.338 141.36 89.108 141.06 88.008 140.46C86.908 139.84 86.038 138.96 85.398 137.82C84.758 136.66 84.438 135.27 84.438 133.65C84.438 132.05 84.758 130.67 85.398 129.51C86.058 128.35 86.908 127.46 87.948 126.84C88.988 126.22 90.078 125.91 91.218 125.91C92.558 125.91 93.678 126.21 94.578 126.81C95.478 127.39 96.158 128.21 96.618 129.27C97.078 130.31 97.308 131.52 97.308 132.9C97.308 133.62 97.258 134.18 97.158 134.58H87.798C87.958 135.88 88.428 136.89 89.208 137.61C89.988 138.33 90.968 138.69 92.148 138.69C92.788 138.69 93.378 138.6 93.918 138.42C94.478 138.22 95.028 137.95 95.568 137.61L96.738 139.77C96.038 140.23 95.258 140.61 94.398 140.91C93.538 141.21 92.638 141.36 91.698 141.36ZM87.768 132.24H94.308C94.308 131.1 94.058 130.21 93.558 129.57C93.058 128.91 92.308 128.58 91.308 128.58C90.448 128.58 89.678 128.9 88.998 129.54C88.338 130.16 87.928 131.06 87.768 132.24ZM103.903 141L98.7731 126.27H102.283L104.623 133.92C104.823 134.64 105.023 135.37 105.223 136.11C105.443 136.85 105.653 137.6 105.853 138.36H105.973C106.193 137.6 106.403 136.85 106.603 136.11C106.823 135.37 107.033 134.64 107.233 133.92L109.573 126.27H112.903L107.893 141H103.903ZM115.457 141V126.27H118.907V141H115.457ZM117.197 123.69C116.577 123.69 116.077 123.51 115.697 123.15C115.317 122.79 115.127 122.31 115.127 121.71C115.127 121.13 115.317 120.66 115.697 120.3C116.077 119.94 116.577 119.76 117.197 119.76C117.817 119.76 118.317 119.94 118.697 120.3C119.077 120.66 119.267 121.13 119.267 121.71C119.267 122.31 119.077 122.79 118.697 123.15C118.317 123.51 117.817 123.69 117.197 123.69ZM129.458 141.36C128.118 141.36 126.908 141.06 125.828 140.46C124.768 139.84 123.918 138.96 123.278 137.82C122.658 136.66 122.348 135.27 122.348 133.65C122.348 132.01 122.688 130.62 123.368 129.48C124.048 128.32 124.948 127.44 126.068 126.84C127.208 126.22 128.428 125.91 129.728 125.91C130.668 125.91 131.488 126.07 132.188 126.39C132.888 126.71 133.508 127.1 134.048 127.56L132.368 129.81C131.988 129.47 131.598 129.21 131.198 129.03C130.798 128.83 130.368 128.73 129.908 128.73C128.728 128.73 127.758 129.18 126.998 130.08C126.258 130.98 125.888 132.17 125.888 133.65C125.888 135.11 126.248 136.29 126.968 137.19C127.708 138.09 128.658 138.54 129.818 138.54C130.398 138.54 130.938 138.42 131.438 138.18C131.958 137.92 132.428 137.62 132.848 137.28L134.258 139.56C133.578 140.16 132.818 140.61 131.978 140.91C131.138 141.21 130.298 141.36 129.458 141.36ZM142.733 141.36C141.373 141.36 140.143 141.06 139.043 140.46C137.943 139.84 137.073 138.96 136.433 137.82C135.793 136.66 135.473 135.27 135.473 133.65C135.473 132.05 135.793 130.67 136.433 129.51C137.093 128.35 137.943 127.46 138.983 126.84C140.023 126.22 141.113 125.91 142.253 125.91C143.593 125.91 144.713 126.21 145.613 126.81C146.513 127.39 147.193 128.21 147.653 129.27C148.113 130.31 148.343 131.52 148.343 132.9C148.343 133.62 148.293 134.18 148.193 134.58H138.833C138.993 135.88 139.463 136.89 140.243 137.61C141.023 138.33 142.003 138.69 143.183 138.69C143.823 138.69 144.413 138.6 144.953 138.42C145.513 138.22 146.063 137.95 146.603 137.61L147.773 139.77C147.073 140.23 146.293 140.61 145.433 140.91C144.573 141.21 143.673 141.36 142.733 141.36ZM138.803 132.24H145.343C145.343 131.1 145.093 130.21 144.593 129.57C144.093 128.91 143.343 128.58 142.343 128.58C141.483 128.58 140.713 128.9 140.033 129.54C139.373 130.16 138.963 131.06 138.803 132.24ZM158.634 147.06C158.234 147.06 157.884 147.03 157.584 146.97C157.284 146.91 156.994 146.84 156.714 146.76L157.344 144.06C157.484 144.1 157.644 144.14 157.824 144.18C158.024 144.24 158.214 144.27 158.394 144.27C159.174 144.27 159.794 144.03 160.254 143.55C160.734 143.09 161.094 142.49 161.334 141.75L161.604 140.82L155.814 126.27H159.324L161.874 133.5C162.094 134.14 162.304 134.82 162.504 135.54C162.724 136.24 162.944 136.94 163.164 137.64H163.284C163.464 136.96 163.644 136.27 163.824 135.57C164.024 134.85 164.214 134.16 164.394 133.5L166.614 126.27H169.944L164.604 141.66C163.984 143.32 163.234 144.63 162.354 145.59C161.474 146.57 160.234 147.06 158.634 147.06ZM178.622 141.36C177.262 141.36 176.032 141.06 174.932 140.46C173.832 139.84 172.962 138.96 172.322 137.82C171.682 136.66 171.362 135.27 171.362 133.65C171.362 132.05 171.682 130.67 172.322 129.51C172.982 128.35 173.832 127.46 174.872 126.84C175.912 126.22 177.002 125.91 178.142 125.91C179.482 125.91 180.602 126.21 181.502 126.81C182.402 127.39 183.082 128.21 183.542 129.27C184.002 130.31 184.232 131.52 184.232 132.9C184.232 133.62 184.182 134.18 184.082 134.58H174.722C174.882 135.88 175.352 136.89 176.132 137.61C176.912 138.33 177.892 138.69 179.072 138.69C179.712 138.69 180.302 138.6 180.842 138.42C181.402 138.22 181.952 137.95 182.492 137.61L183.662 139.77C182.962 140.23 182.182 140.61 181.322 140.91C180.462 141.21 179.562 141.36 178.622 141.36ZM174.692 132.24H181.232C181.232 131.1 180.982 130.21 180.482 129.57C179.982 128.91 179.232 128.58 178.232 128.58C177.372 128.58 176.602 128.9 175.922 129.54C175.262 130.16 174.852 131.06 174.692 132.24ZM192.424 141.36C190.724 141.36 189.514 140.87 188.794 139.89C188.094 138.89 187.744 137.6 187.744 136.02V129H185.644V126.42L187.924 126.27L188.344 122.25H191.224V126.27H194.974V129H191.224V136.02C191.224 137.74 191.914 138.6 193.294 138.6C193.554 138.6 193.824 138.57 194.104 138.51C194.384 138.43 194.624 138.35 194.824 138.27L195.424 140.82C195.024 140.96 194.564 141.08 194.044 141.18C193.544 141.3 193.004 141.36 192.424 141.36Z" fill="#DEDEDE"/>
<path d="M3.09459 163V159.444L0.336586 153.816H1.58259L2.77259 156.406C2.92192 156.742 3.06659 157.073 3.20659 157.4C3.35592 157.727 3.50525 158.063 3.65459 158.408H3.71059C3.86925 158.063 4.02792 157.727 4.18659 157.4C4.34525 157.073 4.49459 156.742 4.63459 156.406L5.81059 153.816H7.02859L4.27059 159.444V163H3.09459ZM10.2286 163.168C9.6779 163.168 9.1599 163.028 8.67457 162.748C8.19857 162.468 7.81124 162.062 7.51257 161.53C7.22324 160.998 7.07857 160.359 7.07857 159.612C7.07857 158.847 7.22324 158.198 7.51257 157.666C7.81124 157.134 8.19857 156.728 8.67457 156.448C9.1599 156.168 9.6779 156.028 10.2286 156.028C10.7886 156.028 11.3066 156.168 11.7826 156.448C12.2586 156.728 12.6412 157.134 12.9306 157.666C13.2292 158.198 13.3786 158.847 13.3786 159.612C13.3786 160.359 13.2292 160.998 12.9306 161.53C12.6412 162.062 12.2586 162.468 11.7826 162.748C11.3066 163.028 10.7886 163.168 10.2286 163.168ZM10.2286 162.216C10.8166 162.216 11.2879 161.978 11.6426 161.502C12.0066 161.017 12.1886 160.387 12.1886 159.612C12.1886 158.828 12.0066 158.193 11.6426 157.708C11.2879 157.223 10.8166 156.98 10.2286 156.98C9.6499 156.98 9.17857 157.223 8.81457 157.708C8.45057 158.193 8.26857 158.828 8.26857 159.612C8.26857 160.387 8.45057 161.017 8.81457 161.502C9.17857 161.978 9.6499 162.216 10.2286 162.216ZM17.1585 163.168C16.4398 163.168 15.9125 162.944 15.5765 162.496C15.2405 162.039 15.0725 161.376 15.0725 160.508V156.196H16.2345V160.354C16.2345 160.989 16.3325 161.451 16.5285 161.74C16.7338 162.029 17.0605 162.174 17.5085 162.174C17.8631 162.174 18.1758 162.085 18.4465 161.908C18.7265 161.721 19.0251 161.427 19.3425 161.026V156.196H20.4905V163H19.5385L19.4405 161.936H19.3985C19.0811 162.309 18.7451 162.608 18.3905 162.832C18.0358 163.056 17.6251 163.168 17.1585 163.168ZM27.9124 163.168C27.0631 163.168 26.3818 162.86 25.8684 162.244C25.3551 161.619 25.0984 160.741 25.0984 159.612C25.0984 158.875 25.2338 158.24 25.5044 157.708C25.7844 157.167 26.1484 156.751 26.5964 156.462C27.0538 156.173 27.5391 156.028 28.0524 156.028C28.4444 156.028 28.7851 156.098 29.0744 156.238C29.3638 156.378 29.6578 156.569 29.9564 156.812L29.9004 155.65V153.032H31.0624V163H30.1104L30.0124 162.202H29.9704C29.7091 162.463 29.4011 162.692 29.0464 162.888C28.6918 163.075 28.3138 163.168 27.9124 163.168ZM28.1644 162.202C28.7618 162.202 29.3404 161.889 29.9004 161.264V157.708C29.6111 157.447 29.3311 157.265 29.0604 157.162C28.7991 157.05 28.5284 156.994 28.2484 156.994C27.8844 156.994 27.5531 157.106 27.2544 157.33C26.9651 157.545 26.7318 157.848 26.5544 158.24C26.3771 158.623 26.2884 159.075 26.2884 159.598C26.2884 160.41 26.4518 161.049 26.7784 161.516C27.1051 161.973 27.5671 162.202 28.1644 162.202ZM36.0001 163.168C35.4494 163.168 34.9314 163.028 34.4461 162.748C33.9701 162.468 33.5827 162.062 33.2841 161.53C32.9947 160.998 32.8501 160.359 32.8501 159.612C32.8501 158.847 32.9947 158.198 33.2841 157.666C33.5827 157.134 33.9701 156.728 34.4461 156.448C34.9314 156.168 35.4494 156.028 36.0001 156.028C36.5601 156.028 37.0781 156.168 37.5541 156.448C38.0301 156.728 38.4127 157.134 38.7021 157.666C39.0007 158.198 39.1501 158.847 39.1501 159.612C39.1501 160.359 39.0007 160.998 38.7021 161.53C38.4127 162.062 38.0301 162.468 37.5541 162.748C37.0781 163.028 36.5601 163.168 36.0001 163.168ZM36.0001 162.216C36.5881 162.216 37.0594 161.978 37.4141 161.502C37.7781 161.017 37.9601 160.387 37.9601 159.612C37.9601 158.828 37.7781 158.193 37.4141 157.708C37.0594 157.223 36.5881 156.98 36.0001 156.98C35.4214 156.98 34.9501 157.223 34.5861 157.708C34.2221 158.193 34.0401 158.828 34.0401 159.612C34.0401 160.387 34.2221 161.017 34.5861 161.502C34.9501 161.978 35.4214 162.216 36.0001 162.216ZM40.9419 163V156.196H41.8939L41.9919 157.176H42.0339C42.3606 156.849 42.7059 156.579 43.0699 156.364C43.4339 156.14 43.8493 156.028 44.3159 156.028C45.0346 156.028 45.5573 156.257 45.8839 156.714C46.2199 157.162 46.3879 157.82 46.3879 158.688V163H45.2399V158.842C45.2399 158.207 45.1373 157.745 44.9319 157.456C44.7266 157.167 44.3999 157.022 43.9519 157.022C43.6066 157.022 43.2939 157.111 43.0139 157.288C42.7433 157.465 42.4353 157.727 42.0899 158.072V163H40.9419ZM48.3808 156.966L48.0588 156.434C48.4134 156.201 48.6748 155.953 48.8428 155.692C49.0201 155.421 49.1088 155.085 49.1088 154.684C49.0808 154.693 49.0434 154.698 48.9968 154.698C48.8008 154.698 48.6281 154.637 48.4788 154.516C48.3294 154.395 48.2548 154.222 48.2548 153.998C48.2548 153.755 48.3248 153.564 48.4648 153.424C48.6048 153.284 48.7821 153.214 48.9968 153.214C49.2674 153.214 49.4821 153.326 49.6408 153.55C49.7994 153.765 49.8788 154.077 49.8788 154.488C49.8788 155.048 49.7481 155.533 49.4868 155.944C49.2348 156.345 48.8661 156.686 48.3808 156.966ZM53.9531 163.168C53.2251 163.168 52.7164 162.958 52.4271 162.538C52.1471 162.118 52.0071 161.572 52.0071 160.9V157.134H50.9991V156.266L52.0631 156.196L52.2031 154.292H53.1691V156.196H55.0031V157.134H53.1691V160.914C53.1691 161.334 53.2438 161.661 53.3931 161.894C53.5518 162.118 53.8271 162.23 54.2191 162.23C54.3404 162.23 54.4711 162.211 54.6111 162.174C54.7511 162.127 54.8771 162.085 54.9891 162.048L55.2131 162.916C55.0264 162.981 54.8211 163.037 54.5971 163.084C54.3824 163.14 54.1678 163.168 53.9531 163.168ZM59.3443 163V153.032H60.4923V155.748L60.4503 157.148C60.777 156.84 61.1176 156.579 61.4723 156.364C61.8363 156.14 62.2516 156.028 62.7183 156.028C63.437 156.028 63.9596 156.257 64.2863 156.714C64.6223 157.162 64.7903 157.82 64.7903 158.688V163H63.6423V158.842C63.6423 158.207 63.5396 157.745 63.3343 157.456C63.129 157.167 62.8023 157.022 62.3543 157.022C62.009 157.022 61.6963 157.111 61.4163 157.288C61.1456 157.465 60.8376 157.727 60.4923 158.072V163H59.3443ZM68.5275 163.168C67.9582 163.168 67.4822 163 67.0995 162.664C66.7262 162.319 66.5395 161.843 66.5395 161.236C66.5395 160.489 66.8709 159.92 67.5335 159.528C68.2055 159.127 69.2649 158.847 70.7115 158.688C70.7115 158.399 70.6695 158.123 70.5855 157.862C70.5109 157.601 70.3709 157.391 70.1655 157.232C69.9695 157.064 69.6849 156.98 69.3115 156.98C68.9195 156.98 68.5509 157.055 68.2055 157.204C67.8602 157.353 67.5522 157.521 67.2815 157.708L66.8335 156.91C67.1509 156.705 67.5382 156.509 67.9955 156.322C68.4622 156.126 68.9662 156.028 69.5075 156.028C70.3382 156.028 70.9402 156.285 71.3135 156.798C71.6869 157.302 71.8735 157.979 71.8735 158.828V163H70.9215L70.8235 162.188H70.7815C70.4642 162.449 70.1142 162.678 69.7315 162.874C69.3582 163.07 68.9569 163.168 68.5275 163.168ZM68.8635 162.244C69.1902 162.244 69.4982 162.165 69.7875 162.006C70.0769 161.847 70.3849 161.623 70.7115 161.334V159.444C69.5822 159.584 68.7889 159.794 68.3315 160.074C67.8835 160.354 67.6595 160.713 67.6595 161.152C67.6595 161.535 67.7762 161.815 68.0095 161.992C68.2429 162.16 68.5275 162.244 68.8635 162.244ZM75.4842 163L73.0342 156.196H74.2242L75.5122 160.06C75.6149 160.396 75.7175 160.732 75.8202 161.068C75.9322 161.404 76.0395 161.735 76.1422 162.062H76.1982C76.3009 161.735 76.4035 161.404 76.5062 161.068C76.6182 160.732 76.7209 160.396 76.8142 160.06L78.1022 156.196H79.2362L76.8282 163H75.4842ZM83.2527 163.168C82.646 163.168 82.0953 163.028 81.6007 162.748C81.106 162.459 80.714 162.048 80.4247 161.516C80.1353 160.984 79.9907 160.349 79.9907 159.612C79.9907 158.865 80.1353 158.226 80.4247 157.694C80.7233 157.162 81.106 156.751 81.5727 156.462C82.0393 156.173 82.5293 156.028 83.0427 156.028C83.9107 156.028 84.578 156.317 85.0447 156.896C85.5207 157.475 85.7587 158.249 85.7587 159.22C85.7587 159.341 85.754 159.463 85.7447 159.584C85.7447 159.696 85.7353 159.794 85.7167 159.878H81.1247C81.1713 160.597 81.3953 161.171 81.7967 161.6C82.2073 162.029 82.7393 162.244 83.3927 162.244C83.7193 162.244 84.018 162.197 84.2887 162.104C84.5687 162.001 84.8347 161.871 85.0867 161.712L85.4927 162.468C85.2033 162.655 84.872 162.818 84.4987 162.958C84.1347 163.098 83.7193 163.168 83.2527 163.168ZM81.1107 159.052H84.7507C84.7507 158.361 84.6013 157.839 84.3027 157.484C84.0133 157.12 83.6027 156.938 83.0707 156.938C82.5947 156.938 82.1653 157.125 81.7827 157.498C81.4093 157.862 81.1853 158.38 81.1107 159.052ZM91.8107 163.168C91.2414 163.168 90.7654 163 90.3827 162.664C90.0094 162.319 89.8227 161.843 89.8227 161.236C89.8227 160.489 90.1541 159.92 90.8167 159.528C91.4887 159.127 92.5481 158.847 93.9947 158.688C93.9947 158.399 93.9527 158.123 93.8687 157.862C93.7941 157.601 93.6541 157.391 93.4487 157.232C93.2527 157.064 92.9681 156.98 92.5947 156.98C92.2027 156.98 91.8341 157.055 91.4887 157.204C91.1434 157.353 90.8354 157.521 90.5647 157.708L90.1167 156.91C90.4341 156.705 90.8214 156.509 91.2787 156.322C91.7454 156.126 92.2494 156.028 92.7907 156.028C93.6214 156.028 94.2234 156.285 94.5967 156.798C94.9701 157.302 95.1567 157.979 95.1567 158.828V163H94.2047L94.1067 162.188H94.0647C93.7474 162.449 93.3974 162.678 93.0147 162.874C92.6414 163.07 92.2401 163.168 91.8107 163.168ZM92.1467 162.244C92.4734 162.244 92.7814 162.165 93.0707 162.006C93.3601 161.847 93.6681 161.623 93.9947 161.334V159.444C92.8654 159.584 92.0721 159.794 91.6147 160.074C91.1667 160.354 90.9427 160.713 90.9427 161.152C90.9427 161.535 91.0594 161.815 91.2927 161.992C91.5261 162.16 91.8107 162.244 92.1467 162.244ZM97.2974 163V156.196H98.2494L98.3474 157.176H98.3894C98.7161 156.849 99.0614 156.579 99.4254 156.364C99.7894 156.14 100.205 156.028 100.671 156.028C101.39 156.028 101.913 156.257 102.239 156.714C102.575 157.162 102.743 157.82 102.743 158.688V163H101.595V158.842C101.595 158.207 101.493 157.745 101.287 157.456C101.082 157.167 100.755 157.022 100.307 157.022C99.9621 157.022 99.6494 157.111 99.3694 157.288C99.0987 157.465 98.7907 157.727 98.4454 158.072V163H97.2974ZM105.066 165.926C104.916 165.926 104.772 165.912 104.632 165.884C104.501 165.856 104.38 165.823 104.268 165.786L104.492 164.876C104.566 164.895 104.65 164.913 104.744 164.932C104.837 164.96 104.926 164.974 105.01 164.974C105.392 164.974 105.71 164.834 105.962 164.554C106.214 164.283 106.41 163.938 106.55 163.518L106.704 163.014L103.974 156.196H105.164L106.55 159.962C106.652 160.251 106.76 160.564 106.872 160.9C106.993 161.236 107.105 161.563 107.208 161.88H107.264C107.366 161.572 107.464 161.25 107.558 160.914C107.651 160.578 107.744 160.261 107.838 159.962L109.056 156.196H110.176L107.614 163.56C107.455 164.008 107.264 164.409 107.04 164.764C106.825 165.119 106.554 165.399 106.228 165.604C105.91 165.819 105.523 165.926 105.066 165.926ZM116.616 163.168C115.766 163.168 115.085 162.86 114.572 162.244C114.058 161.619 113.802 160.741 113.802 159.612C113.802 158.875 113.937 158.24 114.208 157.708C114.488 157.167 114.852 156.751 115.3 156.462C115.757 156.173 116.242 156.028 116.756 156.028C117.148 156.028 117.488 156.098 117.778 156.238C118.067 156.378 118.361 156.569 118.66 156.812L118.604 155.65V153.032H119.766V163H118.814L118.716 162.202H118.674C118.412 162.463 118.104 162.692 117.75 162.888C117.395 163.075 117.017 163.168 116.616 163.168ZM116.868 162.202C117.465 162.202 118.044 161.889 118.604 161.264V157.708C118.314 157.447 118.034 157.265 117.764 157.162C117.502 157.05 117.232 156.994 116.952 156.994C116.588 156.994 116.256 157.106 115.958 157.33C115.668 157.545 115.435 157.848 115.258 158.24C115.08 158.623 114.992 159.075 114.992 159.598C114.992 160.41 115.155 161.049 115.482 161.516C115.808 161.973 116.27 162.202 116.868 162.202ZM124.815 163.168C124.209 163.168 123.658 163.028 123.163 162.748C122.669 162.459 122.277 162.048 121.987 161.516C121.698 160.984 121.553 160.349 121.553 159.612C121.553 158.865 121.698 158.226 121.987 157.694C122.286 157.162 122.669 156.751 123.135 156.462C123.602 156.173 124.092 156.028 124.605 156.028C125.473 156.028 126.141 156.317 126.607 156.896C127.083 157.475 127.321 158.249 127.321 159.22C127.321 159.341 127.317 159.463 127.307 159.584C127.307 159.696 127.298 159.794 127.279 159.878H122.687C122.734 160.597 122.958 161.171 123.359 161.6C123.77 162.029 124.302 162.244 124.955 162.244C125.282 162.244 125.581 162.197 125.851 162.104C126.131 162.001 126.397 161.871 126.649 161.712L127.055 162.468C126.766 162.655 126.435 162.818 126.061 162.958C125.697 163.098 125.282 163.168 124.815 163.168ZM122.673 159.052H126.313C126.313 158.361 126.164 157.839 125.865 157.484C125.576 157.12 125.165 156.938 124.633 156.938C124.157 156.938 123.728 157.125 123.345 157.498C122.972 157.862 122.748 158.38 122.673 159.052ZM130.541 163L128.091 156.196H129.281L130.569 160.06C130.672 160.396 130.774 160.732 130.877 161.068C130.989 161.404 131.096 161.735 131.199 162.062H131.255C131.358 161.735 131.46 161.404 131.563 161.068C131.675 160.732 131.778 160.396 131.871 160.06L133.159 156.196H134.293L131.885 163H130.541ZM135.606 163V156.196H136.754V163H135.606ZM136.194 154.796C135.97 154.796 135.783 154.731 135.634 154.6C135.494 154.46 135.424 154.273 135.424 154.04C135.424 153.816 135.494 153.634 135.634 153.494C135.783 153.354 135.97 153.284 136.194 153.284C136.418 153.284 136.6 153.354 136.74 153.494C136.889 153.634 136.964 153.816 136.964 154.04C136.964 154.273 136.889 154.46 136.74 154.6C136.6 154.731 136.418 154.796 136.194 154.796ZM141.739 163.168C141.142 163.168 140.601 163.028 140.115 162.748C139.63 162.468 139.247 162.062 138.967 161.53C138.687 160.998 138.547 160.359 138.547 159.612C138.547 158.847 138.697 158.198 138.995 157.666C139.303 157.134 139.705 156.728 140.199 156.448C140.703 156.168 141.245 156.028 141.823 156.028C142.271 156.028 142.654 156.107 142.971 156.266C143.298 156.425 143.578 156.611 143.811 156.826L143.223 157.582C143.027 157.405 142.817 157.26 142.593 157.148C142.379 157.036 142.136 156.98 141.865 156.98C141.455 156.98 141.086 157.092 140.759 157.316C140.442 157.531 140.19 157.839 140.003 158.24C139.826 158.632 139.737 159.089 139.737 159.612C139.737 160.387 139.929 161.017 140.311 161.502C140.703 161.978 141.212 162.216 141.837 162.216C142.155 162.216 142.449 162.151 142.719 162.02C142.99 161.88 143.228 161.717 143.433 161.53L143.937 162.3C143.629 162.571 143.289 162.785 142.915 162.944C142.542 163.093 142.15 163.168 141.739 163.168ZM147.893 163.168C147.287 163.168 146.736 163.028 146.241 162.748C145.747 162.459 145.355 162.048 145.065 161.516C144.776 160.984 144.631 160.349 144.631 159.612C144.631 158.865 144.776 158.226 145.065 157.694C145.364 157.162 145.747 156.751 146.213 156.462C146.68 156.173 147.17 156.028 147.683 156.028C148.551 156.028 149.219 156.317 149.685 156.896C150.161 157.475 150.399 158.249 150.399 159.22C150.399 159.341 150.395 159.463 150.385 159.584C150.385 159.696 150.376 159.794 150.357 159.878H145.765C145.812 160.597 146.036 161.171 146.437 161.6C146.848 162.029 147.38 162.244 148.033 162.244C148.36 162.244 148.659 162.197 148.929 162.104C149.209 162.001 149.475 161.871 149.727 161.712L150.133 162.468C149.844 162.655 149.513 162.818 149.139 162.958C148.775 163.098 148.36 163.168 147.893 163.168ZM145.751 159.052H149.391C149.391 158.361 149.242 157.839 148.943 157.484C148.654 157.12 148.243 156.938 147.711 156.938C147.235 156.938 146.806 157.125 146.423 157.498C146.05 157.862 145.826 158.38 145.751 159.052ZM157.571 163.168C156.974 163.168 156.433 163.028 155.947 162.748C155.462 162.468 155.079 162.062 154.799 161.53C154.519 160.998 154.379 160.359 154.379 159.612C154.379 158.847 154.529 158.198 154.827 157.666C155.135 157.134 155.537 156.728 156.031 156.448C156.535 156.168 157.077 156.028 157.655 156.028C158.103 156.028 158.486 156.107 158.803 156.266C159.13 156.425 159.41 156.611 159.643 156.826L159.055 157.582C158.859 157.405 158.649 157.26 158.425 157.148C158.211 157.036 157.968 156.98 157.697 156.98C157.287 156.98 156.918 157.092 156.591 157.316C156.274 157.531 156.022 157.839 155.835 158.24C155.658 158.632 155.569 159.089 155.569 159.612C155.569 160.387 155.761 161.017 156.143 161.502C156.535 161.978 157.044 162.216 157.669 162.216C157.987 162.216 158.281 162.151 158.551 162.02C158.822 161.88 159.06 161.717 159.265 161.53L159.769 162.3C159.461 162.571 159.121 162.785 158.747 162.944C158.374 163.093 157.982 163.168 157.571 163.168ZM163.613 163.168C163.063 163.168 162.545 163.028 162.059 162.748C161.583 162.468 161.196 162.062 160.897 161.53C160.608 160.998 160.463 160.359 160.463 159.612C160.463 158.847 160.608 158.198 160.897 157.666C161.196 157.134 161.583 156.728 162.059 156.448C162.545 156.168 163.063 156.028 163.613 156.028C164.173 156.028 164.691 156.168 165.167 156.448C165.643 156.728 166.026 157.134 166.315 157.666C166.614 158.198 166.763 158.847 166.763 159.612C166.763 160.359 166.614 160.998 166.315 161.53C166.026 162.062 165.643 162.468 165.167 162.748C164.691 163.028 164.173 163.168 163.613 163.168ZM163.613 162.216C164.201 162.216 164.673 161.978 165.027 161.502C165.391 161.017 165.573 160.387 165.573 159.612C165.573 158.828 165.391 158.193 165.027 157.708C164.673 157.223 164.201 156.98 163.613 156.98C163.035 156.98 162.563 157.223 162.199 157.708C161.835 158.193 161.653 158.828 161.653 159.612C161.653 160.387 161.835 161.017 162.199 161.502C162.563 161.978 163.035 162.216 163.613 162.216ZM168.555 163V156.196H169.507L169.605 157.176H169.647C169.974 156.849 170.319 156.579 170.683 156.364C171.047 156.14 171.463 156.028 171.929 156.028C172.648 156.028 173.171 156.257 173.497 156.714C173.833 157.162 174.001 157.82 174.001 158.688V163H172.853V158.842C172.853 158.207 172.751 157.745 172.545 157.456C172.34 157.167 172.013 157.022 171.565 157.022C171.22 157.022 170.907 157.111 170.627 157.288C170.357 157.465 170.049 157.727 169.703 158.072V163H168.555ZM176.211 163V156.196H177.163L177.261 157.176H177.303C177.63 156.849 177.975 156.579 178.339 156.364C178.703 156.14 179.119 156.028 179.585 156.028C180.304 156.028 180.827 156.257 181.153 156.714C181.489 157.162 181.657 157.82 181.657 158.688V163H180.509V158.842C180.509 158.207 180.407 157.745 180.201 157.456C179.996 157.167 179.669 157.022 179.221 157.022C178.876 157.022 178.563 157.111 178.283 157.288C178.013 157.465 177.705 157.727 177.359 158.072V163H176.211ZM186.626 163.168C186.019 163.168 185.468 163.028 184.974 162.748C184.479 162.459 184.087 162.048 183.798 161.516C183.508 160.984 183.364 160.349 183.364 159.612C183.364 158.865 183.508 158.226 183.798 157.694C184.096 157.162 184.479 156.751 184.946 156.462C185.412 156.173 185.902 156.028 186.416 156.028C187.284 156.028 187.951 156.317 188.418 156.896C188.894 157.475 189.132 158.249 189.132 159.22C189.132 159.341 189.127 159.463 189.118 159.584C189.118 159.696 189.108 159.794 189.09 159.878H184.498C184.544 160.597 184.768 161.171 185.17 161.6C185.58 162.029 186.112 162.244 186.766 162.244C187.092 162.244 187.391 162.197 187.662 162.104C187.942 162.001 188.208 161.871 188.46 161.712L188.866 162.468C188.576 162.655 188.245 162.818 187.872 162.958C187.508 163.098 187.092 163.168 186.626 163.168ZM184.484 159.052H188.124C188.124 158.361 187.974 157.839 187.676 157.484C187.386 157.12 186.976 156.938 186.444 156.938C185.968 156.938 185.538 157.125 185.156 157.498C184.782 157.862 184.558 158.38 184.484 159.052ZM193.501 163.168C192.904 163.168 192.362 163.028 191.877 162.748C191.392 162.468 191.009 162.062 190.729 161.53C190.449 160.998 190.309 160.359 190.309 159.612C190.309 158.847 190.458 158.198 190.757 157.666C191.065 157.134 191.466 156.728 191.961 156.448C192.465 156.168 193.006 156.028 193.585 156.028C194.033 156.028 194.416 156.107 194.733 156.266C195.06 156.425 195.34 156.611 195.573 156.826L194.985 157.582C194.789 157.405 194.579 157.26 194.355 157.148C194.14 157.036 193.898 156.98 193.627 156.98C193.216 156.98 192.848 157.092 192.521 157.316C192.204 157.531 191.952 157.839 191.765 158.24C191.588 158.632 191.499 159.089 191.499 159.612C191.499 160.387 191.69 161.017 192.073 161.502C192.465 161.978 192.974 162.216 193.599 162.216C193.916 162.216 194.21 162.151 194.481 162.02C194.752 161.88 194.99 161.717 195.195 161.53L195.699 162.3C195.391 162.571 195.05 162.785 194.677 162.944C194.304 163.093 193.912 163.168 193.501 163.168ZM199.203 163.168C198.475 163.168 197.966 162.958 197.677 162.538C197.397 162.118 197.257 161.572 197.257 160.9V157.134H196.249V156.266L197.313 156.196L197.453 154.292H198.419V156.196H200.253V157.134H198.419V160.914C198.419 161.334 198.494 161.661 198.643 161.894C198.802 162.118 199.077 162.23 199.469 162.23C199.59 162.23 199.721 162.211 199.861 162.174C200.001 162.127 200.127 162.085 200.239 162.048L200.463 162.916C200.276 162.981 200.071 163.037 199.847 163.084C199.632 163.14 199.418 163.168 199.203 163.168ZM204.358 163.168C203.751 163.168 203.201 163.028 202.706 162.748C202.211 162.459 201.819 162.048 201.53 161.516C201.241 160.984 201.096 160.349 201.096 159.612C201.096 158.865 201.241 158.226 201.53 157.694C201.829 157.162 202.211 156.751 202.678 156.462C203.145 156.173 203.635 156.028 204.148 156.028C205.016 156.028 205.683 156.317 206.15 156.896C206.626 157.475 206.864 158.249 206.864 159.22C206.864 159.341 206.859 159.463 206.85 159.584C206.85 159.696 206.841 159.794 206.822 159.878H202.23C202.277 160.597 202.501 161.171 202.902 161.6C203.313 162.029 203.845 162.244 204.498 162.244C204.825 162.244 205.123 162.197 205.394 162.104C205.674 162.001 205.94 161.871 206.192 161.712L206.598 162.468C206.309 162.655 205.977 162.818 205.604 162.958C205.24 163.098 204.825 163.168 204.358 163.168ZM202.216 159.052H205.856C205.856 158.361 205.707 157.839 205.408 157.484C205.119 157.12 204.708 156.938 204.176 156.938C203.7 156.938 203.271 157.125 202.888 157.498C202.515 157.862 202.291 158.38 202.216 159.052ZM210.869 163.168C210.02 163.168 209.339 162.86 208.825 162.244C208.312 161.619 208.055 160.741 208.055 159.612C208.055 158.875 208.191 158.24 208.461 157.708C208.741 157.167 209.105 156.751 209.553 156.462C210.011 156.173 210.496 156.028 211.009 156.028C211.401 156.028 211.742 156.098 212.031 156.238C212.321 156.378 212.615 156.569 212.913 156.812L212.857 155.65V153.032H214.019V163H213.067L212.969 162.202H212.927C212.666 162.463 212.358 162.692 212.003 162.888C211.649 163.075 211.271 163.168 210.869 163.168ZM211.121 162.202C211.719 162.202 212.297 161.889 212.857 161.264V157.708C212.568 157.447 212.288 157.265 212.017 157.162C211.756 157.05 211.485 156.994 211.205 156.994C210.841 156.994 210.51 157.106 210.211 157.33C209.922 157.545 209.689 157.848 209.511 158.24C209.334 158.623 209.245 159.075 209.245 159.598C209.245 160.41 209.409 161.049 209.735 161.516C210.062 161.973 210.524 162.202 211.121 162.202ZM216.913 163.168C216.68 163.168 216.479 163.089 216.311 162.93C216.152 162.762 216.073 162.552 216.073 162.3C216.073 162.029 216.152 161.815 216.311 161.656C216.479 161.488 216.68 161.404 216.913 161.404C217.137 161.404 217.328 161.488 217.487 161.656C217.655 161.815 217.739 162.029 217.739 162.3C217.739 162.552 217.655 162.762 217.487 162.93C217.328 163.089 217.137 163.168 216.913 163.168Z" fill="#DEDEDE"/>
<path d="M98.6112 15.0012H154.068C155.906 15.0012 157.67 15.7387 158.97 17.0515C160.27 18.3642 161 20.1447 161 22.0012V78.0012M140.204 85.0012H70.8829C69.0444 85.0012 67.2812 84.2637 65.9811 82.951C64.6811 81.6382 63.9508 79.8578 63.9508 78.0012V22.0012C63.9508 20.1447 64.6811 18.3642 65.9811 17.0515C67.2812 15.7387 69.0444 15.0012 70.8829 15.0012M59 3L156.049 101" stroke="#DEDEDE" stroke-width="5" stroke-linecap="round" stroke-linejoin="round"/>
</svg>
