<svg width="123" height="107" viewBox="0 0 123 107" fill="none" xmlns="http://www.w3.org/2000/svg">
<path d="M19.8493 0.209695C22.877 -0.0575697 25.933 -0.0421505 28.9709 0.104331C30.0391 0.140309 30.5232 1.22993 31.015 2.01373C31.8936 2.04971 33.6483 2.12424 34.5269 2.16021C34.9982 1.4535 35.3363 0.443551 36.2431 0.207125C41.3252 -0.0755592 46.4278 0.032375 51.5124 0.11718C52.5857 0.12232 53.0647 1.24021 53.5514 2.0163C73.5339 2.30927 93.5241 2.01373 113.507 2.15507C118.058 2.4686 122.229 6.17433 122.797 10.7641C123.084 13.3596 122.979 15.9758 122.989 18.579C122.933 39.1404 123.018 59.7018 122.956 80.2632C123.064 85.1228 119.198 89.7563 114.37 90.3576C110.93 90.7071 107.467 90.5067 104.019 90.5401C72.85 90.5247 41.6813 90.5427 10.5151 90.5349C6.57289 90.6583 2.63326 88.2606 1.01693 84.6346C-0.0589154 82.5941 0.0691614 80.1784 0 77.9452C0.0614768 56.0989 -0.0230539 34.25 0.0384229 12.4037C-0.0665999 7.55177 3.79363 2.89776 8.62724 2.31698C11.7882 1.95206 14.9798 2.17049 18.1561 2.1191C18.6198 1.42267 18.9553 0.440982 19.8493 0.209695ZM9.096 6.40048C6.40127 6.80394 4.22909 9.44575 4.12407 12.1441C4.09333 32.7055 4.15224 53.2695 4.10101 73.8309C4.11638 76.429 4.00624 79.04 4.30337 81.6304C4.62613 83.5861 6.24246 85.0843 7.93307 85.9426C9.45974 86.6159 11.2093 86.3101 12.8256 86.4437C46.1255 86.3564 79.428 86.5157 112.725 86.3666C115.907 86.5542 118.753 83.6349 118.87 80.5228C118.899 58.6739 118.845 36.825 118.894 14.9786C118.804 12.8534 119.132 10.3118 117.515 8.63111C116.096 6.7474 113.732 6.00472 111.455 6.24371C80.7139 6.23343 49.9729 6.25656 19.232 6.236C15.8533 6.26427 12.467 6.08952 9.096 6.40048Z" fill="#646C7C"/>
<path d="M7.5514 37.1693C8.60675 36.7659 9.89776 37.3852 10.1795 38.4697C10.5817 39.5259 9.96436 40.8237 8.88339 41.1064C7.82804 41.5098 6.53703 40.8905 6.25526 39.806C5.8531 38.7472 6.47043 37.452 7.5514 37.1693Z" fill="#646C7C"/>
<path d="M7.5514 43.3396C8.56577 42.949 9.93875 43.522 10.1309 44.6348C10.3998 48.505 10.4075 52.4086 10.1539 56.2788C9.74919 58.0905 6.63949 58.1188 6.30393 56.2556C6.02216 52.4523 6.06315 48.6258 6.24502 44.8224C6.31418 44.1157 6.87259 43.5092 7.5514 43.3396Z" fill="#646C7C"/>
<path d="M28.3126 94.7957C31.681 94.5233 35.0648 94.657 38.4435 94.639C59.3661 94.6621 80.2861 94.6339 101.209 94.6467C103.097 94.567 105.128 94.8086 106.516 96.2554C109.254 98.3987 109.311 103.006 106.652 105.252C104.982 107.188 102.218 106.979 99.9228 107C76.8665 106.954 53.8101 107.003 30.7538 106.979C25.7536 107.144 21.2428 104.795 16.6576 103.153C15.446 102.747 13.9322 101.93 14.383 100.326C14.6776 99.0283 16.1556 98.7225 17.2033 98.2599C20.8688 96.9878 24.396 95.153 28.3126 94.7957ZM28.5637 98.9306C26.4299 99.3341 24.04 99.5654 22.2674 100.92C25.1824 102.161 28.3331 103.001 31.5248 102.883C54.5811 102.857 77.64 102.868 100.696 102.881C101.782 102.688 103.281 103.168 104.093 102.171C105.11 101.02 104.362 98.7944 102.743 98.7944C80.1171 98.6865 57.4859 98.8176 34.8573 98.7353C32.7569 98.7379 30.6539 98.7071 28.5637 98.9306Z" fill="#646C7C"/>
<path fill-rule="evenodd" clip-rule="evenodd" d="M69.511 32C73.2625 32 76.2182 34.9365 76.2182 38.6637C76.2182 42.3909 73.2625 45.3274 69.511 45.3274C65.7594 45.3274 62.8037 42.3909 62.8037 38.6637C62.8037 34.9365 65.7594 32 69.511 32Z" fill="#75B7F5"/>
<path fill-rule="evenodd" clip-rule="evenodd" d="M58.4819 32H53.7073C50.0694 32 47 35.0495 47 38.6637C47 42.2779 50.0694 45.3274 53.7073 45.3274H58.4819C60.0735 45.3274 61.324 44.085 61.324 42.5038V34.8236C61.4376 33.2424 60.0735 32 58.4819 32Z" fill="#0178E5"/>
<path fill-rule="evenodd" clip-rule="evenodd" d="M53.7073 47.8125C49.9557 47.8125 47 50.749 47 54.4762C47 58.2034 49.9557 61.1399 53.7073 61.1399C57.4588 61.1399 60.4145 58.2034 60.4145 54.4762C60.4145 50.749 57.4588 47.8125 53.7073 47.8125Z" fill="#75B7F5"/>
<path fill-rule="evenodd" clip-rule="evenodd" d="M64.6204 47.8125H69.395C73.0329 47.8125 76.1023 50.862 76.1023 54.4762C76.1023 58.0904 73.0329 61.1399 69.395 61.1399H64.6204C63.0288 61.1399 61.7783 59.8975 61.7783 58.3163V50.749C61.7783 49.0549 63.1425 47.8125 64.6204 47.8125Z" fill="#0178E5"/>
</svg>
